<svg xmlns="http://www.w3.org/2000/svg" xmlns:xlink="http://www.w3.org/1999/xlink" width="100" zoomAndPan="magnify" viewBox="0 0 75 74.999997" height="100" preserveAspectRatio="xMidYMid meet" version="1.0"><defs><clipPath id="45368b2a04"><path d="M 0 24.910156 L 74.996094 24.910156 L 74.996094 72.730469 L 0 72.730469 Z M 0 24.910156 " clip-rule="nonzero"/></clipPath></defs><g clip-path="url(#45368b2a04)"><path fill="#bc9c22" d="M 71.625 69.191406 L 54.550781 69.191406 L 54.550781 35.203125 C 55.808594 34.121094 56.988281 32.992188 57.941406 31.78125 C 59.601562 33.878906 61.917969 35.726562 64.1875 37.539062 C 67.613281 40.273438 71.625 42.773438 71.625 46.175781 Z M 3.371094 69.191406 L 3.371094 46.175781 C 3.371094 43.148438 7.382812 40.273438 10.808594 37.539062 C 13.078125 35.726562 15.394531 33.878906 17.054688 31.78125 C 18.007812 32.992188 19.183594 34.121094 20.445312 35.203125 L 20.445312 69.191406 Z M 57.941406 24.964844 C 57.601562 26.90625 56.296875 28.664062 54.550781 30.351562 C 53.542969 31.324219 52.386719 32.273438 51.179688 33.21875 C 46.40625 36.964844 40.890625 40.644531 40.890625 45.570312 L 40.890625 69.191406 L 34.105469 69.191406 L 34.105469 45.570312 C 34.105469 40.523438 28.589844 36.867188 23.816406 33.15625 C 22.609375 32.222656 21.453125 31.285156 20.445312 30.320312 C 18.699219 28.652344 17.394531 26.90625 17.054688 24.964844 C 15.726562 32.488281 0 37.253906 0 45.570312 L 0 72.730469 L 23.816406 72.730469 L 23.816406 37.945312 C 27.113281 40.523438 30.734375 42.941406 30.734375 46.175781 L 30.734375 72.730469 L 44.261719 72.730469 L 44.261719 46.175781 C 44.261719 43.300781 47.882812 40.558594 51.179688 37.949219 L 51.179688 69.191406 L 51.191406 69.191406 L 51.191406 72.730469 L 74.996094 72.730469 L 74.996094 45.570312 C 74.996094 37.050781 59.269531 32.488281 57.941406 24.964844 " fill-opacity="1" fill-rule="nonzero"/></g><path fill="#bc9c22" d="M 23.816406 21.234375 C 23.816406 18.207031 27.828125 15.332031 31.253906 12.597656 C 33.523438 10.789062 35.839844 8.9375 37.496094 6.84375 C 39.15625 8.9375 41.472656 10.789062 43.742188 12.597656 C 47.167969 15.332031 51.179688 17.832031 51.179688 21.234375 L 51.179688 31.667969 C 52.386719 30.722656 53.542969 29.773438 54.550781 28.800781 L 54.550781 20.628906 C 54.550781 12.113281 38.828125 7.546875 37.496094 0.0234375 C 36.167969 7.546875 20.445312 12.3125 20.445312 20.628906 L 20.445312 28.769531 C 21.453125 29.734375 22.609375 30.671875 23.816406 31.609375 L 23.816406 21.234375 " fill-opacity="1" fill-rule="nonzero"/></svg>