<svg xmlns="http://www.w3.org/2000/svg" xmlns:xlink="http://www.w3.org/1999/xlink" width="250" zoomAndPan="magnify" viewBox="0 0 187.5 187.499992" height="250" preserveAspectRatio="xMidYMid meet" version="1.0"><defs><g/><clipPath id="f39829fe34"><path d="M 59.484375 61.535156 L 127.730469 61.535156 L 127.730469 105.40625 L 59.484375 105.40625 Z M 59.484375 61.535156 " clip-rule="nonzero"/></clipPath><clipPath id="fce86fd3b4"><path d="M 78 38.679688 L 110 38.679688 L 110 68 L 78 68 Z M 78 38.679688 " clip-rule="nonzero"/></clipPath></defs><g clip-path="url(#f39829fe34)"><path fill="#bc9c22" d="M 124.664062 102.160156 L 109.125 102.160156 L 109.125 70.980469 C 110.269531 69.984375 111.339844 68.949219 112.210938 67.839844 C 113.71875 69.761719 115.828125 71.460938 117.894531 73.121094 C 121.011719 75.628906 124.664062 77.921875 124.664062 81.046875 Z M 62.550781 102.160156 L 62.550781 81.046875 C 62.550781 78.269531 66.199219 75.628906 69.316406 73.121094 C 71.382812 71.460938 73.492188 69.761719 75 67.839844 C 75.871094 68.949219 76.941406 69.984375 78.089844 70.980469 L 78.089844 102.160156 Z M 112.210938 61.582031 C 111.898438 63.367188 110.710938 64.980469 109.125 66.523438 C 108.207031 67.417969 107.152344 68.289062 106.058594 69.15625 C 101.714844 72.59375 96.691406 75.96875 96.691406 80.492188 L 96.691406 102.160156 L 90.519531 102.160156 L 90.519531 80.492188 C 90.519531 75.859375 85.5 72.503906 81.152344 69.101562 C 80.058594 68.242188 79.007812 67.382812 78.089844 66.496094 C 76.5 64.96875 75.3125 63.367188 75 61.582031 C 73.792969 68.484375 59.484375 72.859375 59.484375 80.492188 L 59.484375 105.40625 L 81.152344 105.40625 L 81.152344 73.496094 C 84.15625 75.859375 87.453125 78.078125 87.453125 81.046875 L 87.453125 105.40625 L 99.757812 105.40625 L 99.757812 81.046875 C 99.757812 78.40625 103.054688 75.894531 106.058594 73.5 L 106.058594 102.160156 L 106.066406 102.160156 L 106.066406 105.40625 L 127.730469 105.40625 L 127.730469 80.492188 C 127.730469 72.675781 113.417969 68.484375 112.210938 61.582031 " fill-opacity="1" fill-rule="nonzero"/></g><g clip-path="url(#fce86fd3b4)"><path fill="#bc9c22" d="M 81.152344 58.164062 C 81.152344 55.386719 84.804688 52.746094 87.921875 50.238281 C 89.988281 48.574219 92.097656 46.878906 93.605469 44.957031 C 95.113281 46.878906 97.222656 48.574219 99.289062 50.238281 C 102.40625 52.746094 106.058594 55.039062 106.058594 58.164062 L 106.058594 67.734375 C 107.152344 66.867188 108.207031 65.996094 109.125 65.101562 L 109.125 57.605469 C 109.125 49.792969 94.816406 45.601562 93.605469 38.699219 C 92.398438 45.601562 78.089844 49.976562 78.089844 57.605469 L 78.089844 65.074219 C 79.007812 65.960938 80.058594 66.820312 81.152344 67.679688 L 81.152344 58.164062 " fill-opacity="1" fill-rule="nonzero"/></g><g fill="#000000" fill-opacity="1"><g transform="translate(37.989232, 131.476215)"><g><path d="M 0.394531 0 L 8.003906 0 L 8.003906 -0.132812 C 6.921875 -0.261719 6 -0.554688 6 -1.5 L 6 -16.925781 C 6 -17.875 6.921875 -18.164062 8.003906 -18.292969 L 8.003906 -18.425781 L 0.394531 -18.425781 L 0.394531 -18.292969 C 1.472656 -18.164062 2.394531 -17.875 2.394531 -16.925781 L 2.394531 -1.5 C 2.394531 -0.554688 1.472656 -0.261719 0.394531 -0.132812 Z M 0.394531 0 "/></g></g></g><g fill="#000000" fill-opacity="1"><g transform="translate(45.859255, 131.476215)"><g><path d="M 6.160156 0.183594 C 9.421875 0.183594 11.53125 -1.578125 11.53125 -3.976562 C 11.53125 -6.1875 9.738281 -7.527344 6.738281 -8.054688 C 4.949219 -8.371094 3.5 -8.976562 3.5 -10.632812 C 3.5 -11.34375 3.789062 -12.53125 5.527344 -12.53125 C 7.449219 -12.53125 9.476562 -11.003906 9.320312 -8.898438 L 9.371094 -8.898438 L 11.160156 -11.371094 C 10.1875 -12.265625 8.554688 -12.925781 6.476562 -12.925781 C 3.394531 -12.925781 1.183594 -11.503906 1.183594 -9.132812 C 1.183594 -7.660156 2 -5.421875 6.027344 -4.894531 C 8.265625 -4.582031 9.449219 -3.84375 9.449219 -2.238281 C 9.449219 -1 8.738281 -0.261719 7.160156 -0.261719 C 4.976562 -0.261719 2.554688 -1.761719 2.632812 -4.054688 L 2.578125 -4.054688 L 0.921875 -1.367188 C 1.972656 -0.5 4.132812 0.183594 6.160156 0.183594 Z M 6.160156 0.183594 "/></g></g></g><g fill="#000000" fill-opacity="1"><g transform="translate(57.78279, 131.476215)"><g><path d="M 5.449219 -2.554688 L 5.449219 -19.425781 L 5.582031 -20.609375 L -0.261719 -17.875 L -0.261719 -17.714844 C 1.421875 -18.214844 2.105469 -18.347656 2.105469 -17.292969 L 2.105469 -1.632812 L 1.867188 0 L 6.949219 0 L 6.949219 -0.105469 C 5.632812 -0.394531 5.449219 -1.132812 5.449219 -2.554688 Z M 5.449219 -2.554688 "/></g></g></g><g fill="#000000" fill-opacity="1"><g transform="translate(64.599958, 131.476215)"><g><path d="M 14.503906 -2.160156 L 14.503906 -11.949219 C 12.820312 -12.609375 11.003906 -12.925781 9.320312 -12.925781 C 3.738281 -12.925781 1.054688 -9.660156 1.054688 -5.816406 C 1.054688 -2.160156 3.554688 0.183594 7.398438 0.183594 C 8.632812 0.183594 9.6875 -0.078125 10.53125 -0.527344 C 10.53125 -0.5 10.503906 -0.5 10.503906 -0.5 L 15.53125 0.316406 L 15.53125 0.238281 C 14.742188 -0.289062 14.503906 -0.738281 14.503906 -2.160156 Z M 4.394531 -7.34375 C 4.394531 -10.398438 5.660156 -12.425781 8.132812 -12.425781 C 9.398438 -12.425781 10.34375 -11.898438 11.160156 -11.003906 L 11.160156 -2.5 C 11.160156 -2.105469 11.136719 -1.816406 11.109375 -1.554688 C 10.582031 -0.972656 9.925781 -0.65625 9.054688 -0.65625 C 6.398438 -0.65625 4.394531 -3.527344 4.394531 -7.34375 Z M 4.394531 -7.34375 "/></g></g></g><g fill="#000000" fill-opacity="1"><g transform="translate(80.655973, 131.476215)"><g><path d="M 19.242188 0 L 23.769531 0 C 22.980469 -0.527344 22.742188 -1.027344 22.742188 -2.449219 L 22.742188 -8.132812 C 22.742188 -12.109375 20.585938 -12.925781 19.003906 -12.925781 C 16.6875 -12.925781 14.714844 -11.160156 13.6875 -10.371094 C 13.03125 -12.425781 11.449219 -12.925781 10.238281 -12.925781 C 8.132812 -12.925781 6.34375 -11.503906 5.210938 -10.609375 L 5.210938 -10.949219 L 5.34375 -12.898438 L 0.261719 -12.503906 L 0.261719 -12.398438 C 0.816406 -12.34375 1.5 -12.160156 1.867188 -11.925781 L 1.867188 -1.816406 L 1.710938 0 L 6.238281 0 C 5.449219 -0.527344 5.210938 -1.027344 5.210938 -2.449219 L 5.210938 -10.003906 C 6.1875 -10.738281 7.316406 -11.714844 8.609375 -11.714844 C 9.792969 -11.714844 10.632812 -11.003906 10.632812 -8.082031 L 10.632812 -1.816406 L 10.476562 0 L 15.003906 0 C 14.214844 -0.527344 13.976562 -1.027344 13.976562 -2.449219 L 13.976562 -8.132812 C 13.976562 -8.792969 13.925781 -9.371094 13.820312 -9.84375 C 14.765625 -10.609375 16.003906 -11.714844 17.375 -11.714844 C 18.558594 -11.714844 19.398438 -11.003906 19.398438 -8.082031 L 19.398438 -1.816406 Z M 19.242188 0 "/></g></g></g><g fill="#000000" fill-opacity="1"><g transform="translate(104.68741, 131.476215)"><g/></g></g><g fill="#000000" fill-opacity="1"><g transform="translate(109.425178, 131.476215)"><g><path d="M 9.765625 -10.003906 C 9.476562 -10.003906 9.214844 -10.003906 8.976562 -9.976562 C 11.609375 -10.949219 14.003906 -12.425781 14.003906 -14.976562 C 14.003906 -16.769531 12.820312 -18.796875 9.054688 -18.796875 C 5.738281 -18.796875 2.265625 -17.164062 0.921875 -15.820312 L 3.660156 -11.503906 L 3.738281 -11.503906 C 3.105469 -14.609375 3.371094 -18.136719 6.871094 -18.136719 C 9.6875 -18.136719 10.609375 -15.953125 10.609375 -14.214844 C 10.609375 -11.636719 8.554688 -9.949219 5.660156 -9.449219 L 6.027344 -9.054688 L 7.105469 -9.371094 C 9.34375 -9.898438 11.792969 -9.792969 11.792969 -6.210938 C 11.792969 -3.027344 10.003906 -0.5 6.265625 -0.5 C 4.476562 -0.5 2.472656 -1.054688 1.449219 -2.183594 L 1.289062 -2.027344 C 2.289062 -0.710938 4.789062 0.367188 7.34375 0.367188 C 11.082031 0.367188 15.292969 -1.949219 15.292969 -5.976562 C 15.292969 -9.082031 12.476562 -10.003906 9.765625 -10.003906 Z M 9.765625 -10.003906 "/></g></g></g><g fill="#000000" fill-opacity="1"><g transform="translate(125.375909, 131.476215)"><g><path d="M 3.289062 0.183594 C 4.289062 0.183594 5.210938 -0.65625 5.210938 -1.789062 C 5.210938 -2.84375 4.289062 -3.632812 3.289062 -3.632812 C 2.238281 -3.632812 1.316406 -2.84375 1.316406 -1.789062 C 1.316406 -0.65625 2.238281 0.183594 3.289062 0.183594 Z M 3.289062 0.183594 "/></g></g></g><g fill="#000000" fill-opacity="1"><g transform="translate(131.377109, 131.476215)"><g><path d="M 9.109375 -18.796875 C 4.421875 -18.796875 1.183594 -15.425781 1.183594 -9.238281 C 1.183594 -3.054688 4.421875 0.367188 9.082031 0.367188 C 13.714844 0.367188 16.953125 -3 16.953125 -9.1875 C 16.953125 -15.398438 13.714844 -18.796875 9.109375 -18.796875 Z M 10.265625 -0.078125 C 6.582031 -0.078125 4.554688 -6.582031 4.554688 -11.949219 C 4.554688 -16.003906 5.710938 -18.347656 7.871094 -18.347656 C 11.554688 -18.347656 13.582031 -11.898438 13.582031 -6.554688 C 13.582031 -2.449219 12.425781 -0.078125 10.265625 -0.078125 Z M 10.265625 -0.078125 "/></g></g></g></svg>