<?xml version="1.0" standalone="no"?>
<!DOCTYPE svg PUBLIC "-//W3C//DTD SVG 20010904//EN"
 "http://www.w3.org/TR/2001/REC-SVG-20010904/DTD/svg10.dtd">
<svg version="1.0" xmlns="http://www.w3.org/2000/svg"
 width="1024.000000pt" height="1024.000000pt" viewBox="0 0 1024.000000 1024.000000"
 preserveAspectRatio="xMidYMid meet">

<g transform="translate(0.000000,1024.000000) scale(0.100000,-0.100000)"
fill="#000000" stroke="none">
<path d="M0 7919 c0 -1400 4 -2318 9 -2315 5 4 11 0 14 -6 4 -10 7 -11 18 0 7
6 25 12 40 12 15 0 31 5 34 10 3 6 11 10 16 10 6 0 7 -4 4 -10 -4 -6 2 -7 17
-2 28 10 58 5 58 -10 0 -7 5 -6 14 2 8 6 34 13 58 15 24 2 43 5 43 5 0 1 10 3
23 6 13 2 22 -1 22 -9 0 -14 58 -17 68 -2 6 9 36 16 87 19 14 1 19 -5 18 -19
-1 -18 0 -18 10 -4 8 11 27 15 64 15 28 -1 46 -4 41 -7 -6 -4 0 -10 13 -14 14
-5 25 -3 27 4 2 6 8 8 13 5 5 -3 33 -8 62 -11 30 -3 57 -12 64 -22 7 -9 13
-12 13 -7 0 5 8 2 17 -5 15 -12 16 -12 8 1 -5 10 -1 8 13 -4 12 -10 19 -23 15
-29 -3 -6 -1 -7 6 -3 6 4 9 13 5 19 -3 7 0 5 8 -4 7 -9 19 -14 26 -11 7 2 16
-5 19 -17 3 -12 13 -21 22 -20 11 0 12 2 3 6 -9 3 -5 12 13 29 14 13 28 24 31
24 9 0 3 -20 -12 -34 -14 -15 -14 -16 3 -16 14 0 15 -2 5 -9 -11 -7 -11 -9 2
-14 12 -5 16 5 19 56 2 34 4 -175 5 -464 l2 -526 22 -21 c13 -11 43 -30 68
-42 35 -16 38 -20 15 -15 -16 3 -47 20 -67 36 l-38 30 0 -94 c0 -90 1 -95 22
-101 40 -10 191 -6 249 7 86 21 281 95 388 148 53 26 87 41 76 32 -34 -26
-235 -120 -330 -153 -127 -44 -217 -62 -317 -63 l-86 0 -5 -271 c-4 -253 -6
-278 -31 -375 -14 -57 -24 -106 -22 -109 3 -2 8 9 12 24 4 16 24 87 44 158
l37 130 79 23 c43 13 194 60 334 105 383 121 484 148 599 163 84 11 133 24
236 65 154 62 175 66 280 50 44 -6 166 -16 270 -21 362 -17 430 -21 434 -24
17 -17 -45 -24 -266 -30 -219 -6 -254 -9 -238 -21 10 -7 41 -21 69 -30 80 -27
193 -84 222 -113 23 -23 26 -31 20 -76 -3 -27 -9 -60 -12 -72 -6 -21 -3 -23
40 -21 25 1 46 6 46 11 0 4 5 5 11 2 6 -4 8 -13 5 -21 -3 -8 0 -11 9 -7 8 3
12 10 8 17 -4 6 1 4 11 -4 17 -13 17 -14 -1 -21 -16 -7 -16 -8 -1 -8 9 -1 20
4 23 9 5 8 12 7 23 -2 15 -12 16 -11 2 6 -13 16 -12 20 9 37 33 27 44 24 39
-11 -4 -24 -1 -30 14 -30 11 0 18 7 18 20 0 21 15 27 25 10 8 -13 30 -13 78 1
32 8 36 13 26 25 -17 21 -46 17 -52 -7 -4 -17 -10 -19 -29 -14 -23 8 -38 22
-38 39 0 4 7 5 16 2 8 -3 12 -2 9 4 -3 6 -1 10 5 10 6 0 8 11 6 25 -3 14 -1
25 4 25 5 0 10 7 12 15 2 13 8 12 36 -5 17 -11 32 -25 32 -31 0 -8 -4 -8 -12
-2 -7 6 -23 13 -35 16 -17 4 -23 1 -23 -13 0 -29 25 -43 52 -29 31 16 38 29
31 59 -5 22 -4 23 8 9 8 -9 21 -19 29 -22 12 -5 12 -6 -1 -6 -24 -1 -30 -47
-9 -66 18 -17 75 -21 65 -5 -3 6 -17 10 -30 10 -13 0 -26 4 -29 9 -4 5 4 7 16
3 21 -5 22 -4 9 12 -8 9 -11 19 -8 22 3 3 13 -6 22 -20 17 -26 43 -38 29 -13
-4 7 -3 9 2 4 5 -5 9 -14 9 -20 0 -11 23 -12 53 -2 16 6 16 42 0 48 -8 4 -7 6
3 6 15 1 31 44 33 85 1 10 -160 55 -204 57 -20 1 -19 3 10 9 20 5 63 5 100 -1
142 -22 185 -26 190 -18 6 9 36 7 45 -3 4 -3 -4 -9 -17 -13 -66 -18 -68 -22
-83 -130 -3 -22 -8 -48 -11 -57 -4 -13 3 -18 29 -23 52 -10 81 -3 85 20 2 11
6 27 9 35 7 15 8 27 11 89 2 28 4 32 17 21 16 -13 21 -80 7 -80 -5 0 -7 -20
-6 -45 2 -33 -2 -48 -14 -56 -14 -8 -13 -9 8 -5 14 3 28 6 32 6 4 0 5 8 2 18
-5 16 -5 16 6 0 6 -10 23 -18 38 -18 31 0 55 -13 50 -26 -1 -5 11 -9 27 -10
30 -2 192 -67 209 -85 6 -5 -30 7 -78 27 -50 21 -91 32 -95 27 -3 -5 -15 -15
-26 -22 l-20 -13 20 8 c41 14 68 17 62 7 -10 -16 -67 -22 -117 -13 -44 7 -44
8 -9 9 19 0 44 7 55 15 18 14 18 15 -7 25 -58 22 -112 32 -121 23 -5 -5 -12
-42 -15 -82 -5 -64 -4 -75 12 -86 11 -8 26 -14 34 -13 11 0 12 2 3 6 -6 2 -10
9 -6 14 10 16 24 10 24 -11 0 -13 6 -20 18 -19 10 0 12 3 5 6 -19 7 -16 30 5
42 16 10 16 10 0 11 -12 0 -18 7 -17 23 1 16 2 18 6 4 6 -21 26 -22 43 -2 7 9
15 13 18 11 2 -3 14 -1 25 5 13 7 17 7 13 1 -10 -17 11 -23 24 -7 7 8 9 15 4
15 -4 0 -3 5 3 11 6 6 17 8 23 4 9 -6 9 -10 -1 -17 -10 -7 -8 -8 8 -5 13 3 28
-2 35 -10 11 -14 9 -15 -17 -9 -17 3 -37 2 -45 -4 -15 -10 -10 -12 25 -12 55
0 67 3 62 16 -5 11 0 13 23 6 16 -4 31 -6 33 -3 9 8 48 -8 42 -18 -4 -5 1 -9
9 -9 9 0 44 -13 78 -29 35 -15 70 -31 78 -34 9 -3 6 -6 -10 -6 -42 -2 -203
-38 -242 -54 -28 -12 -36 -20 -32 -32 5 -12 15 -15 38 -12 32 6 68 -3 67 -16
-4 -36 1 -41 62 -51 15 -3 44 -15 63 -27 27 -17 38 -19 47 -10 9 9 8 11 -7 5
-15 -6 -17 -4 -11 6 5 8 4 11 -3 6 -6 -3 -13 -2 -16 3 -4 6 7 8 25 6 21 -3 29
0 26 8 -2 7 -10 11 -16 9 -6 -1 -11 2 -11 7 0 19 -105 44 -131 31 -10 -6 -16
-5 -16 3 0 20 75 19 121 -2 38 -16 44 -17 42 -3 -2 14 -78 44 -91 36 -3 -2 -3
-1 0 3 3 3 0 12 -6 19 -14 17 24 29 50 15 25 -14 51 -4 51 20 0 10 5 19 10 19
12 0 31 44 35 80 2 14 3 29 4 33 1 5 5 6 10 3 5 -4 12 0 14 6 4 10 6 10 6 1 1
-7 -11 -38 -25 -69 -35 -76 -28 -143 17 -181 25 -21 28 -28 17 -41 -11 -13
-10 -15 4 -9 10 3 20 2 23 -3 4 -6 12 -10 18 -10 7 0 6 4 -3 11 -10 7 -11 9
-2 7 22 -6 14 -22 -14 -32 -19 -6 -29 -5 -35 5 -6 9 -9 10 -9 2 0 -22 19 -24
86 -8 37 8 99 15 138 14 56 -2 80 2 114 20 48 25 52 19 17 -29 -17 -23 -25
-28 -25 -17 0 10 -8 17 -17 17 -15 0 -16 -2 -3 -10 12 -8 12 -10 -5 -11 -14 0
-15 -2 -5 -6 8 -2 36 -13 62 -24 50 -20 83 -25 73 -10 -3 5 0 13 6 17 8 4 9 3
5 -4 -4 -8 0 -12 11 -12 13 0 14 -3 5 -8 -8 -6 7 -14 43 -24 30 -8 55 -15 55
-14 0 0 3 33 6 71 9 94 14 95 14 2 0 -42 3 -77 8 -76 4 0 23 7 42 14 29 11 31
14 12 14 -13 1 -20 5 -17 11 4 6 11 8 16 5 5 -4 9 -1 9 5 0 6 4 9 9 6 5 -3 12
1 15 10 4 9 9 14 12 11 3 -3 1 -15 -6 -26 -6 -12 -7 -21 -3 -21 15 0 178 52
188 60 21 17 88 22 170 11 64 -9 90 -9 100 -1 10 8 24 8 52 1 21 -6 91 -18
156 -26 65 -9 129 -20 143 -25 44 -17 57 -13 50 15 -6 24 -6 25 11 8 10 -10
29 -27 43 -38 14 -12 30 -30 36 -40 9 -16 24 -21 80 -23 37 -2 74 -8 82 -14 8
-7 32 -15 55 -19 42 -6 42 -6 7 -8 -27 -1 -31 -4 -20 -11 11 -7 -5 -10 -52
-10 -39 0 -72 -5 -80 -12 -18 -17 -38 -21 -39 -8 -1 5 -2 15 -3 22 0 6 -7 13
-15 16 -10 3 -11 -2 -6 -19 4 -13 9 -32 12 -42 4 -14 8 -16 19 -6 11 9 14 8
15 -7 0 -18 1 -18 9 1 7 17 9 15 9 -11 1 -20 -5 -34 -14 -38 -13 -5 -14 -10
-4 -27 10 -19 9 -21 -5 -16 -12 5 -18 -4 -26 -36 -6 -23 -15 -58 -21 -77 -5
-19 -12 -76 -15 -125 -6 -83 -4 -97 24 -178 25 -73 27 -87 14 -82 -63 24 -214
61 -377 91 -104 19 -235 47 -290 62 -84 23 -94 27 -64 30 20 2 87 -9 150 -23
63 -15 166 -35 229 -46 63 -10 168 -36 233 -57 64 -21 117 -35 117 -32 0 11
-248 132 -380 185 -63 26 -183 69 -267 95 l-152 47 -29 -56 c-124 -240 -152
-299 -186 -399 -28 -82 -36 -116 -28 -124 8 -8 34 -2 92 21 89 35 371 112 520
142 52 10 176 24 275 30 170 11 182 13 225 40 39 24 95 51 175 84 11 4 24 7
29 6 5 -1 13 4 17 10 6 10 11 10 22 0 12 -9 17 -9 23 0 5 8 3 10 -7 4 -10 -6
-11 -5 -3 4 6 6 19 13 30 16 10 2 37 11 59 19 38 14 125 22 113 10 -6 -5 -29
-11 -51 -13 -5 -1 -6 -5 -3 -10 3 -5 -8 -11 -24 -13 -17 -3 -30 -1 -30 4 0 4
-5 8 -11 8 -5 0 -8 -4 -5 -9 9 -14 -16 -20 -39 -9 -19 8 -19 8 -2 -5 15 -12
26 -12 75 -1 31 8 71 14 87 13 l30 0 -25 -14 c-14 -8 -34 -15 -45 -15 -11 -1
-14 -4 -7 -7 6 -2 10 -9 7 -13 -3 -5 -13 -6 -22 -3 -11 4 -14 3 -9 -5 5 -8 -1
-11 -16 -11 -33 2 -49 -3 -85 -28 -17 -13 -36 -23 -41 -23 -14 0 -122 -58
-157 -84 -18 -14 -36 -22 -40 -18 -5 4 -5 2 -2 -4 10 -18 -19 -36 -45 -29 -15
4 -19 3 -10 -3 8 -6 -37 -11 -124 -16 -230 -11 -382 -47 -640 -148 -137 -54
-181 -78 -141 -78 7 0 48 -18 91 -39 93 -47 142 -59 296 -71 116 -10 270 -38
270 -49 -1 -3 -40 -24 -88 -46 -124 -57 -387 -182 -452 -215 -30 -15 -124 -58
-208 -95 l-154 -68 -106 48 c-59 26 -197 89 -307 140 -110 50 -276 125 -368
165 -182 80 -183 81 -67 96 36 4 68 9 73 10 4 1 28 3 55 4 l47 2 -65 10 c-35
5 -92 22 -126 38 -34 17 -71 30 -83 30 -13 0 -19 5 -15 14 3 8 -12 25 -41 45
-50 34 -60 38 -49 19 4 -7 4 -10 -1 -6 -4 4 -9 22 -10 39 -2 17 -9 35 -16 40
-8 5 -49 9 -92 9 -75 0 -79 -1 -104 -30 -27 -33 -61 -55 -70 -46 -3 3 9 21 26
41 17 20 29 41 25 46 -3 6 -51 9 -111 8 -110 -2 -129 5 -118 40 5 15 10 18 23
12 64 -32 159 -49 196 -35 27 10 20 74 -14 127 -40 64 -24 59 28 -7 28 -37 42
-64 42 -85 0 -16 4 -33 10 -36 5 -3 39 -7 75 -9 48 -2 68 0 72 10 3 10 10 10
27 3 16 -7 35 -8 59 -1 21 6 37 7 37 2 0 -5 13 -8 28 -8 15 1 44 -5 64 -11 27
-9 43 -9 57 -2 28 15 41 14 34 -5 -5 -13 0 -14 28 -9 19 3 48 1 64 -5 27 -9
26 -10 -15 -6 -41 5 -42 4 -15 -5 59 -20 155 -62 152 -66 -2 -2 -46 12 -96 32
-51 19 -103 35 -116 35 -37 0 -41 -21 -9 -47 l29 -23 -25 0 c-15 0 -32 6 -39
13 -10 10 -12 8 -9 -8 2 -11 11 -19 19 -17 12 3 12 1 1 -10 -11 -11 -17 -9
-33 11 -10 13 -19 19 -19 13 0 -11 -49 -26 -58 -18 -3 3 3 14 12 25 13 15 14
20 4 24 -7 3 -3 6 9 6 21 1 44 21 24 21 -6 0 -11 4 -11 10 0 5 8 7 18 4 13 -5
14 -4 3 4 -8 6 -21 8 -29 4 -9 -3 -13 -1 -9 4 6 11 -94 2 -125 -11 -54 -22 17
-91 152 -147 64 -27 169 -43 191 -30 26 17 56 15 63 -4 9 -23 8 -24 -16 -15
-13 4 -38 3 -58 -2 -35 -11 -35 -11 30 -18 100 -12 213 7 284 47 22 13 49 24
59 24 10 0 41 10 68 21 l49 22 -92 32 c-51 18 -129 47 -172 64 -139 56 -304
92 -511 111 -115 11 -123 13 -195 56 -86 51 -279 115 -450 150 -125 25 -359
44 -528 43 -99 0 -105 -1 -85 -15 47 -33 163 -83 169 -73 3 6 24 9 45 7 30 -3
40 0 44 13 3 9 16 25 28 35 l22 19 -19 -23 c-11 -12 -17 -24 -14 -27 6 -7 166
-35 193 -35 18 1 17 3 -8 25 -15 14 -25 25 -22 25 15 0 65 -32 75 -47 11 -17
11 -17 6 0 -4 14 -1 17 19 14 33 -4 41 -14 17 -21 -11 -4 -23 -13 -25 -21 -5
-10 1 -10 26 3 18 9 35 21 38 26 4 4 46 -5 93 -20 48 -16 83 -30 77 -32 -5 -2
-7 -10 -4 -18 4 -10 0 -12 -11 -8 -10 4 -18 0 -22 -10 -3 -9 -11 -16 -18 -15
-6 1 -21 -2 -33 -6 -22 -7 -22 -7 7 -37 17 -16 30 -35 30 -41 0 -7 -8 -2 -18
10 -21 27 -71 48 -85 34 -12 -12 0 -31 21 -31 16 -1 16 -2 0 -14 -16 -12 8
-26 205 -125 122 -61 229 -111 237 -111 13 0 13 -1 0 -10 -10 -6 -11 -10 -2
-10 6 0 15 1 18 3 3 1 10 -6 16 -16 7 -14 5 -23 -8 -38 -9 -10 -12 -19 -6 -19
6 0 12 6 15 13 3 8 8 9 16 1 9 -8 6 -15 -10 -30 -13 -10 -19 -13 -15 -6 10 17
-6 15 -30 -4 -10 -8 -14 -13 -7 -10 6 4 15 1 19 -6 4 -7 4 -10 -1 -6 -4 4 -15
3 -22 -4 -9 -7 -17 -8 -21 -2 -4 5 -15 10 -25 12 -9 2 -169 75 -355 164 -185
88 -456 215 -602 283 -257 119 -552 259 -925 440 -99 48 -319 154 -490 235
-170 81 -447 214 -614 294 -168 80 -308 146 -313 146 -4 0 -8 -20 -8 -45 l0
-46 93 -43 c80 -38 789 -383 1175 -573 72 -36 135 -70 139 -77 3 -6 2 -8 -2
-3 -5 4 -18 1 -29 -7 -12 -7 -37 -16 -56 -20 -43 -9 -53 -13 -165 -66 -349
-166 -544 -272 -615 -332 -51 -43 -71 -148 -37 -186 9 -10 17 -26 17 -36 0
-10 6 -16 17 -14 11 2 22 -8 30 -24 8 -15 22 -30 33 -33 11 -4 20 -13 20 -21
0 -8 5 -12 10 -9 6 3 10 -2 10 -11 0 -10 3 -14 7 -11 3 4 19 -6 34 -22 15 -16
30 -26 34 -23 3 3 8 -4 12 -16 3 -12 9 -20 13 -17 5 3 16 -5 24 -17 9 -12 16
-19 16 -14 0 4 16 -11 35 -34 19 -23 35 -36 35 -28 1 8 4 7 11 -4 5 -10 18
-18 27 -19 14 0 13 -2 -3 -9 -11 -5 -14 -9 -7 -9 7 -1 10 -6 7 -11 -4 -6 -3
-9 2 -8 16 5 95 -54 111 -83 10 -16 27 -32 39 -35 12 -3 25 -15 29 -26 4 -14
12 -18 26 -15 11 3 17 3 14 0 -10 -10 26 -43 46 -43 11 0 16 -5 13 -10 -4 -6
-10 -8 -15 -5 -13 8 -20 -21 -7 -34 14 -14 30 -15 22 -1 -3 5 -1 10 4 10 15 0
14 -27 -2 -33 -9 -4 -9 -6 1 -6 6 -1 12 -7 12 -15 0 -8 6 -17 13 -19 10 -4 10
-6 0 -6 -8 -1 -13 -15 -13 -36 0 -23 -5 -35 -13 -35 -8 0 -19 -10 -26 -22 -11
-22 -11 -22 -6 -1 3 12 1 24 -5 28 -5 3 -10 -2 -10 -13 0 -10 -11 -24 -25 -30
-33 -15 -35 -15 -35 2 0 8 -4 17 -9 20 -5 4 -8 -4 -7 -17 2 -18 -3 -23 -23
-25 -14 -2 -44 -4 -66 -6 -22 -2 -42 -5 -45 -6 -18 -7 -58 -11 -150 -15 -58
-3 -112 -8 -122 -11 -9 -3 -19 -1 -22 4 -3 5 -17 7 -30 5 -14 -3 -39 0 -55 5
-23 8 -30 8 -28 -1 1 -6 -9 -13 -23 -15 -20 -2 -22 -1 -10 7 10 7 -13 8 -74 4
-66 -5 -87 -3 -82 5 5 8 -4 12 -28 12 -20 0 -36 -5 -36 -10 0 -6 -13 -4 -30 5
-32 16 -54 20 -30 5 8 -5 12 -12 8 -15 -3 -3 -12 1 -20 8 -10 10 -20 12 -31 5
-9 -5 -17 -6 -17 -2 0 3 -6 1 -14 -5 -16 -14 -76 13 -76 35 0 17 -12 18 -29 2
-10 -11 -15 -10 -24 2 -9 11 -28 14 -74 12 -35 -2 -63 -7 -63 -12 0 -4 -11 -5
-25 -2 -14 2 -25 8 -25 13 0 5 -11 7 -25 5 -13 -3 -27 0 -31 5 -3 5 -14 7 -24
4 -10 -3 -21 -1 -25 5 -3 5 -27 10 -52 10 -29 0 -53 6 -65 16 -13 12 -21 14
-30 6 -9 -7 -19 -6 -32 4 -11 8 -35 14 -53 14 l-33 0 0 -725 0 -725 5120 0
5120 0 0 5120 0 5120 -5120 0 -5120 0 0 -2321z m1509 697 c47 -25 65 -91 36
-133 -20 -28 -84 -47 -118 -34 -59 23 -77 107 -32 155 28 30 70 34 114 12z
m7300 -10 c7 -9 11 -40 9 -78 l-3 -63 -347 -3 c-337 -2 -348 -2 -368 18 -28
28 -27 87 2 117 l21 23 338 0 c278 0 339 -2 348 -14z m151 -27 c0 -6 -4 -7
-10 -4 -5 3 -10 11 -10 16 0 6 5 7 10 4 6 -3 10 -11 10 -16z m-4990 1 c0 -5
-5 -10 -11 -10 -5 0 -7 5 -4 10 3 6 8 10 11 10 2 0 4 -4 4 -10z m710 -21 c0
-5 -43 -8 -95 -7 -85 2 -104 6 -91 19 8 8 186 -3 186 -12z m-3003 -11 c-3 -8
-6 -5 -6 6 -1 11 2 17 5 13 3 -3 4 -12 1 -19z m373 5 c0 -13 -2 -15 -8 -5 -5
7 -16 10 -25 6 -10 -3 -17 -1 -17 5 0 6 11 11 25 11 17 0 25 -5 25 -17z m1593
10 c-7 -2 -19 -2 -25 0 -7 3 -2 5 12 5 14 0 19 -2 13 -5z m737 -2 c0 -11 -114
-10 -125 0 -3 3 24 7 60 8 39 1 65 -2 65 -8z m610 -1 c0 -5 -22 -10 -50 -10
-27 0 -50 5 -50 10 0 6 23 10 50 10 28 0 50 -4 50 -10z m650 0 c0 -5 -18 -10
-40 -10 -22 0 -40 5 -40 10 0 6 18 10 40 10 22 0 40 -4 40 -10z m430 3 c0 -5
-29 -8 -65 -8 -36 -1 -65 3 -65 7 0 4 29 8 65 8 36 0 65 -3 65 -7z m1165 -3
c3 -5 1 -10 -4 -10 -6 0 -11 5 -11 10 0 6 2 10 4 10 3 0 8 -4 11 -10z m-5525
-10 c0 -5 -5 -10 -11 -10 -5 0 -7 5 -4 10 3 6 8 10 11 10 2 0 4 -4 4 -10z m30
0 c0 -5 -5 -10 -11 -10 -5 0 -7 5 -4 10 3 6 8 10 11 10 2 0 4 -4 4 -10z m200
0 c0 -4 -7 -7 -15 -6 -23 3 -26 12 -5 13 11 1 20 -2 20 -7z m40 -2 c0 -4 -4
-8 -9 -8 -6 0 -12 4 -15 8 -3 5 1 9 9 9 8 0 15 -4 15 -9z m-165 -165 c8 -20
13 -38 10 -41 -3 -3 -5 0 -5 6 0 16 -37 15 -43 0 -4 -9 -6 -8 -6 2 0 8 4 22 9
30 6 10 10 11 10 3 0 -7 5 -13 10 -13 7 0 7 6 0 19 -11 21 -13 31 -5 31 3 0
12 -16 20 -37z m1855 -267 c0 -2 -7 -7 -16 -10 -8 -3 -12 -2 -9 4 6 10 25 14
25 6z m-33 -148 c-3 -7 -5 -2 -5 12 0 14 2 19 5 13 2 -7 2 -19 0 -25z m-250
-10 c-3 -8 -6 -5 -6 6 -1 11 2 17 5 13 3 -3 4 -12 1 -19z m213 1 c-7 -11 -9
-26 -7 -33 3 -7 1 -19 -3 -26 -6 -10 -10 -7 -15 12 -5 18 -1 32 11 47 23 27
28 27 14 0z m-205 -29 c-3 -5 -12 -10 -18 -10 -7 0 -6 4 3 10 19 12 23 12 15
0z m235 -12 c0 -16 -3 -19 -11 -11 -6 6 -8 16 -5 22 11 17 16 13 16 -11z
m-2516 -33 c-4 -8 -2 -15 4 -15 6 0 13 6 15 13 3 7 6 4 6 -6 1 -12 -5 -17 -16
-15 -19 3 -31 38 -14 38 6 0 8 -7 5 -15z m2497 -36 c-10 -23 -10 -22 -7 6 6
39 7 42 12 29 3 -6 0 -22 -5 -35z m-115 7 c21 6 24 3 24 -24 0 -17 -5 -34 -10
-37 -17 -11 -70 6 -70 21 0 23 23 61 28 46 2 -7 13 -10 28 -6z m781 -103 c-2
-21 -4 -4 -4 37 0 41 2 58 4 38 2 -21 2 -55 0 -75z m2484 44 c-6 -8 -23 -12
-40 -9 -37 5 -46 -10 -71 -126 -25 -110 -25 -107 6 -87 35 23 42 12 8 -14 -31
-24 -62 -27 -70 -7 -8 20 22 159 41 196 19 36 59 59 104 60 27 0 31 -3 22 -13z
m-311 -32 c0 -3 -11 -10 -24 -15 -19 -7 -25 -18 -31 -59 -4 -28 -15 -67 -26
-88 -23 -45 -23 -43 -3 -43 8 0 12 -4 9 -10 -9 -15 -108 -13 -103 2 3 7 15 15
29 18 25 6 36 36 54 139 6 34 4 41 -10 41 -9 0 -13 5 -10 10 6 10 115 15 115
5z m-2770 -62 c0 -5 -12 -9 -27 -10 -19 -1 -22 1 -12 8 17 11 39 12 39 2z
m2874 -1 c2 -4 1 -14 -3 -21 -6 -10 -10 -9 -14 3 -4 9 -13 16 -22 16 -23 0
-18 -38 10 -72 31 -37 31 -42 -1 -67 -30 -23 -99 -30 -91 -8 2 7 17 11 36 9
43 -5 51 21 17 57 -32 33 -33 55 -4 75 24 17 64 21 72 8z m326 4 c0 -3 -7 -35
-15 -72 -9 -36 -14 -68 -11 -71 2 -3 14 0 25 7 12 6 21 7 21 2 0 -14 -57 -35
-75 -28 -8 3 -15 12 -15 21 0 13 -5 12 -29 -6 -41 -30 -75 -23 -79 18 -7 70
57 133 136 133 23 0 42 -2 42 -4z m118 -22 c3 -22 3 -22 28 3 30 30 68 28 72
-5 l4 -23 26 26 c17 17 34 25 51 23 29 -3 31 -14 16 -103 l-8 -49 27 17 c14
10 26 13 26 7 0 -11 -52 -40 -74 -40 -21 0 -24 18 -10 82 6 32 8 61 3 63 -11
8 -57 -55 -72 -101 -8 -23 -22 -40 -32 -43 -16 -3 -17 2 -11 35 3 22 9 57 12
79 l5 40 -35 -39 c-20 -22 -41 -57 -46 -78 -8 -28 -16 -38 -31 -38 -15 0 -19
5 -16 18 16 58 29 124 24 128 -3 3 -16 1 -29 -6 l-23 -11 24 21 c30 26 65 23
69 -6z m496 10 c19 -18 8 -47 -25 -65 l-21 -11 21 -14 c47 -34 13 -102 -56
-111 -50 -7 -82 2 -66 18 8 8 17 7 33 -1 17 -9 29 -9 46 -1 43 19 22 91 -27
91 -10 0 -19 5 -19 10 0 6 10 10 23 10 35 0 59 22 55 51 -4 28 -44 40 -54 15
-8 -20 -24 -21 -24 -2 0 18 15 24 62 25 21 1 43 -6 52 -15z m304 0 c41 -28 21
-118 -33 -142 -100 -46 -168 47 -91 124 38 38 85 45 124 18z m-3548 -213 c-12
-91 -28 -179 -36 -196 -8 -16 -12 -21 -9 -10 9 41 44 273 52 345 4 41 9 64 11
51 2 -12 -6 -98 -18 -190z m-190 156 c0 -2 -12 -14 -27 -28 l-28 -24 24 28
c23 25 31 32 31 24z m3514 -84 c-13 -10 -21 -10 -32 -1 -12 10 -11 14 4 25 13
10 21 10 32 1 12 -10 11 -14 -4 -25z m-4090 -202 c-6 -16 -18 -27 -32 -29 -26
-4 -27 6 -5 57 17 38 18 39 32 19 10 -15 11 -28 5 -47z m350 -132 c-9 -28 -19
-61 -25 -72 -8 -21 -9 -21 -8 3 2 42 -1 46 -16 20 l-15 -25 6 30 c9 42 23 67
34 60 5 -3 14 4 20 15 18 34 20 22 4 -31z m281 15 c-8 -20 -15 -39 -15 -42 0
-3 -3 -3 -6 0 -6 7 22 78 31 78 3 0 -2 -16 -10 -36z m2555 -39 c-7 -8 -21 -15
-31 -15 -13 0 -20 -10 -25 -35 -3 -19 -11 -38 -16 -41 -6 -4 -5 -10 3 -15 10
-6 3 -9 -20 -9 -30 0 -33 2 -19 13 19 14 36 87 20 87 -5 0 -17 -11 -26 -25 -9
-14 -25 -25 -36 -25 -13 0 -20 -7 -20 -18 0 -32 -29 -62 -61 -62 -18 0 -28 4
-24 10 4 6 15 8 26 5 14 -5 20 0 24 22 11 53 13 58 20 78 6 19 6 19 -8 3 -17
-22 -39 -24 -31 -3 4 8 1 15 -4 15 -10 0 -32 -60 -32 -87 0 -23 -20 -14 -39
18 l-19 31 -14 -29 c-9 -19 -22 -29 -41 -31 -15 -2 -27 2 -27 8 0 7 8 9 20 5
15 -5 22 0 30 20 5 14 10 33 10 42 0 13 -3 13 -15 3 -20 -17 -32 -5 -15 15 21
26 56 19 70 -15 14 -34 30 -40 30 -11 0 32 22 39 134 40 61 0 114 5 120 11 16
16 30 12 16 -5z m428 3 c-37 -13 -39 -47 -3 -40 29 5 32 -4 9 -29 -9 -10 -13
-22 -10 -28 9 -13 36 -2 36 14 0 20 29 45 51 45 28 0 21 -31 -9 -46 -26 -13
-14 -28 14 -17 12 4 15 3 10 -5 -9 -15 -106 -13 -125 2 -11 8 -15 8 -18 -1
-10 -29 -23 -11 -17 23 6 32 4 36 -12 32 -11 -1 -26 -18 -34 -35 -20 -43 -42
-44 -33 -1 4 22 3 29 -5 24 -7 -4 -12 -2 -12 4 0 16 31 25 40 10 5 -8 9 -9 14
-1 4 6 18 11 32 11 14 0 24 6 24 15 0 17 28 35 55 34 15 0 14 -3 -7 -11z m356
2 c-27 -11 -31 -16 -39 -65 l-7 -40 30 33 c20 20 40 32 57 32 25 0 26 -2 20
-32 l-6 -33 28 33 c29 34 73 44 73 17 0 -18 -16 -20 -23 -2 -7 16 -27 -10 -27
-35 0 -32 47 -17 60 18 9 22 54 43 67 31 10 -11 -7 -39 -27 -44 -11 -3 -20
-10 -20 -15 0 -6 11 -7 26 -4 17 5 23 3 19 -4 -8 -14 -65 -13 -65 1 0 8 -4 8
-12 1 -18 -14 -228 -13 -228 2 0 6 5 29 10 51 10 43 32 65 64 64 21 0 21 0 0
-9z m-194 -24 c0 -19 18 -24 67 -20 23 2 45 -1 48 -7 9 -14 -23 -60 -46 -66
-10 -3 -25 -16 -34 -29 -10 -16 -24 -24 -43 -23 l-27 1 25 7 c19 5 28 17 36
51 10 40 9 46 -7 54 -23 11 -24 9 -33 -26 -5 -23 -3 -26 11 -21 11 4 14 3 9
-5 -4 -7 -16 -12 -28 -12 -17 0 -20 5 -16 34 2 19 0 32 -4 30 -4 -3 -8 0 -8 5
0 6 5 11 10 11 6 0 10 7 10 15 0 8 7 15 15 15 8 0 15 -6 15 -14z m-4207 -44
c-11 -30 -44 -72 -56 -71 -8 0 -8 2 1 6 6 2 10 9 6 14 -7 12 35 81 46 74 5 -3
6 -13 3 -23z m3677 17 c0 -8 5 -7 15 1 12 10 21 10 41 1 15 -6 23 -7 19 -1 -3
5 1 10 11 10 12 0 15 -7 12 -30 -3 -16 -1 -30 4 -30 4 0 8 4 8 8 0 19 43 52
67 52 22 0 25 -3 21 -29 -3 -23 -1 -28 11 -23 14 5 14 3 2 -11 -16 -20 -41
-23 -41 -4 0 8 -2 9 -8 1 -4 -7 -26 -12 -49 -12 -38 -1 -42 2 -45 26 l-4 27
-14 -27 c-19 -39 -34 -35 -27 7 3 19 4 35 3 35 -2 0 -11 -16 -20 -35 -23 -47
-40 -46 -32 3 5 29 4 33 -4 20 -7 -11 -22 -17 -38 -17 -22 1 -23 2 -5 6 12 2
27 11 33 19 15 17 40 19 40 3z m-2791 -169 c-17 -27 -36 -53 -42 -57 -9 -5 -9
-3 -1 8 6 8 23 33 38 57 14 23 28 42 31 42 3 0 -9 -22 -26 -50z m-1738 27 c-6
-8 -7 -18 -3 -22 4 -5 1 -5 -6 -1 -10 6 -10 11 -1 22 6 8 14 14 16 14 3 0 0
-6 -6 -13z m1540 -44 c-12 -20 -14 -14 -5 12 4 9 9 14 11 11 3 -2 0 -13 -6
-23z m-1491 -9 c-3 -5 -9 -9 -15 -9 -5 0 -15 -4 -22 -8 -6 -4 -14 -3 -18 2 -3
5 2 14 12 19 20 12 50 9 43 -4z m-90 -103 c0 -4 -6 -8 -14 -8 -8 0 -12 6 -9
14 5 13 23 9 23 -6z m361 -4 c-10 -9 -11 -8 -5 6 3 10 9 15 12 12 3 -3 0 -11
-7 -18z m739 -101 c0 -26 -17 -46 -41 -46 -31 0 -32 21 -4 50 31 32 45 31 45
-4z m-1072 -8 c-9 -13 -19 -23 -24 -23 -5 0 -15 -4 -21 -8 -7 -5 -13 -4 -13 1
0 15 40 45 69 51 2 1 -3 -9 -11 -21z m960 -140 c4 -21 -42 -73 -56 -64 -12 7
-7 28 16 64 16 25 35 25 40 0z m-126 -173 c-5 -40 -12 -47 -32 -35 -11 7 -11
13 0 39 17 43 37 40 32 -4z m-802 -104 c0 -4 -9 -20 -20 -33 -10 -14 -16 -29
-12 -33 4 -5 2 -5 -5 -2 -13 8 -12 23 5 55 13 22 32 30 32 13z m3092 -133
c106 -61 233 -133 282 -159 87 -48 120 -69 81 -55 -11 5 -25 9 -31 10 -6 1
-22 9 -35 17 -26 17 -175 89 -184 89 -12 0 8 -106 23 -117 9 -7 12 -13 6 -14
-5 0 -20 -3 -34 -5 -31 -6 -70 10 -140 56 -30 20 -60 39 -66 43 -7 4 -15 0
-18 -9 -4 -11 0 -14 17 -12 15 2 25 -4 32 -19 7 -17 15 -21 30 -17 14 4 17 3
10 -5 -13 -13 -85 -3 -82 11 1 6 -3 12 -9 15 -15 5 -12 -40 4 -50 6 -4 17 -5
24 -1 6 4 8 3 4 -4 -13 -22 33 -23 54 -2 22 22 47 22 42 0 -2 -8 3 -10 13 -6
9 3 14 2 11 -3 -5 -8 -41 -16 -95 -23 -10 -1 -9 -5 5 -15 17 -12 16 -13 -7
-14 -13 0 -18 -3 -11 -6 19 -7 14 -22 -6 -16 -10 2 -29 -5 -43 -16 -20 -18
-21 -20 -4 -14 11 3 23 11 28 17 5 8 9 7 15 -1 6 -9 15 -8 38 6 16 10 53 26
82 35 29 10 50 21 48 25 -3 3 7 6 21 5 30 -1 43 -28 73 -148 11 -44 29 -115
40 -155 20 -75 19 -104 -6 -128 -16 -16 -197 -124 -279 -166 -33 -17 -76 -41
-97 -53 -30 -19 -37 -21 -42 -9 -3 8 -12 15 -20 15 -7 0 -51 19 -97 42 -46 23
-88 41 -92 40 -4 -1 -23 9 -42 24 -19 14 -39 23 -46 18 -7 -4 -9 -3 -6 3 6 10
-61 53 -82 53 -7 0 -9 -9 -5 -24 7 -30 -13 -238 -28 -289 -15 -50 -4 -58 87
-56 150 3 315 30 315 51 0 5 -6 6 -12 2 -8 -4 -10 -3 -5 2 5 5 14 9 20 9 7 0
15 14 18 30 6 29 7 29 8 4 3 -70 -75 -97 -310 -106 l-146 -6 -12 -89 c-17
-133 -31 -189 -44 -181 -6 4 -8 0 -4 -10 3 -9 -2 -26 -13 -39 l-20 -23 12 35
c6 19 15 39 19 45 13 13 11 45 -2 42 -6 -1 -14 5 -16 13 -3 9 -1 11 4 5 16
-20 32 -14 37 13 3 15 8 61 12 102 3 41 8 78 10 82 7 10 -67 40 -83 33 -8 -2
-12 -1 -9 4 7 11 -22 23 -36 14 -7 -4 -8 -1 -3 7 6 10 4 12 -8 7 -9 -3 -19 -1
-23 5 -5 7 -2 8 6 3 9 -6 11 -4 5 4 -4 7 -16 11 -26 8 -11 -3 -17 -1 -14 3 7
12 -85 52 -102 45 -8 -2 -12 -1 -9 4 3 5 -9 15 -27 22 l-32 14 30 6 c21 5 15
6 -22 5 -29 0 -53 -5 -53 -10 0 -5 24 -48 53 -95 30 -47 80 -131 112 -186 33
-55 75 -125 94 -155 l35 -55 12 30 13 30 -3 -30 c-5 -46 -17 -85 -26 -85 -9 0
-50 54 -50 65 0 4 8 1 18 -6 15 -13 16 -12 3 3 -7 10 -17 15 -22 13 -4 -3 -15
8 -24 25 -9 17 -19 29 -23 26 -4 -3 -8 3 -9 13 -1 9 -35 67 -76 129 -41 62
-88 142 -103 177 -16 36 -32 65 -35 65 -3 0 -57 -58 -119 -129 -63 -72 -118
-127 -123 -124 -6 3 -7 2 -4 -3 3 -5 -3 -21 -13 -34 -14 -18 -22 -22 -30 -14
-8 8 -4 19 12 40 19 25 20 27 3 14 -19 -14 -19 -14 -6 2 7 10 17 16 21 13 4
-2 22 16 40 40 18 24 39 46 47 49 8 3 11 10 8 16 -3 5 -2 10 2 10 5 0 27 21
48 48 l40 47 -58 -49 c-31 -26 -55 -52 -52 -56 3 -5 0 -12 -6 -16 -8 -4 -9 -3
-5 4 15 24 -10 11 -29 -15 -37 -51 -109 -125 -113 -115 -4 12 51 97 92 140 24
26 26 32 12 32 -9 0 -14 5 -11 10 3 6 18 7 32 4 19 -5 24 -3 21 7 -3 8 -14 15
-26 17 -20 3 -21 5 -7 19 14 14 14 17 0 33 -13 14 -13 19 -3 23 7 3 1 6 -14 6
-16 1 -33 10 -42 23 -16 22 -22 48 -9 35 3 -4 11 -3 18 3 7 6 21 4 38 -5 15
-8 25 -10 22 -5 -3 5 3 13 12 19 10 5 14 13 9 18 -5 4 -11 2 -13 -4 -3 -7 -13
-13 -23 -13 -13 0 -18 6 -15 19 3 15 -5 22 -33 31 -20 6 -43 13 -51 16 -8 3 5
21 38 50 85 76 429 362 468 389 24 16 42 39 53 67 9 25 25 48 40 55 96 48 567
316 637 362 0 1 88 -49 195 -111z m-3162 -52 c0 -11 -19 -15 -25 -6 -3 5 1 10
9 10 9 0 16 -2 16 -4z m-130 -211 c-6 -7 -9 -17 -8 -22 4 -11 -42 -58 -64 -66
-14 -5 -15 -1 -8 22 11 39 29 72 53 99 l21 23 8 -22 c5 -13 4 -27 -2 -34z
m-323 5 c-7 -17 -13 -26 -15 -21 -3 10 15 51 22 51 3 0 -1 -14 -7 -30z m3603
-20 c0 -5 -2 -10 -4 -10 -3 0 -8 5 -11 10 -3 6 -1 10 4 10 6 0 11 -4 11 -10z
m-3337 -388 c-10 -28 -45 -62 -64 -62 -22 0 -20 11 16 88 l29 63 13 -36 c7
-19 9 -43 6 -53z m3956 -91 c11 -30 19 -57 17 -59 -4 -3 -46 102 -46 115 0 14
9 -4 29 -56z m-3872 27 c-3 -8 -6 -5 -6 6 -1 11 2 17 5 13 3 -3 4 -12 1 -19z
m3488 -5 c1 -16 4 -89 7 -163 5 -103 5 -115 -2 -50 -18 177 -21 240 -13 240 4
0 8 -12 8 -27z m746 0 c13 -16 12 -17 -3 -4 -10 7 -18 15 -18 17 0 8 8 3 21
-13z m-712 -182 c1 -123 -6 -95 -12 49 -3 81 -2 109 3 80 5 -25 9 -83 9 -129z
m-3559 139 c0 -16 -33 -80 -42 -80 -14 0 -9 44 8 68 16 23 34 29 34 12z m36
-17 c-10 -10 -19 5 -10 18 6 11 8 11 12 0 2 -7 1 -15 -2 -18z m2737 -10 c3 -5
-5 -8 -18 -8 -13 0 -21 3 -18 8 2 4 10 7 18 7 8 0 16 -3 18 -7z m32 -2 c-3 -5
3 -12 12 -14 14 -4 13 -5 -4 -6 -23 -1 -30 9 -16 22 9 10 15 8 8 -2z m230 -91
c37 -17 65 -40 65 -52 0 -5 -14 2 -30 14 -26 19 -34 20 -50 10 -27 -17 -39
-14 -16 3 11 8 18 16 15 17 -2 2 -31 17 -64 35 -33 17 -61 36 -63 42 -2 6 23
-4 55 -22 32 -17 72 -39 88 -47z m914 20 c0 -9 -4 -8 -9 5 -5 11 -9 27 -9 35
0 9 4 8 9 -5 5 -11 9 -27 9 -35z m-2008 23 c13 -16 12 -17 -3 -4 -10 7 -18 15
-18 17 0 8 8 3 21 -13z m863 8 c3 -5 -1 -11 -9 -14 -9 -4 -12 -1 -8 9 6 16 10
17 17 5z m2891 -15 c18 -8 38 -23 44 -34 17 -31 13 -77 -7 -102 -18 -23 -20
-23 -263 -21 -134 1 -251 4 -261 7 -13 4 -25 28 -32 64 -1 3 -5 11 -10 18 -10
17 18 60 47 72 12 5 118 9 235 9 162 1 221 -2 247 -13z m-5811 -43 c-6 -9 -16
-19 -22 -21 -16 -5 -27 27 -14 40 8 8 9 4 5 -12 -4 -17 -2 -21 8 -18 8 3 14
15 13 27 0 15 2 19 10 11 7 -7 7 -16 0 -27z m-800 9 c2 -4 -2 -18 -10 -32
l-13 -25 -1 33 c0 29 12 43 24 24z m3806 4 c0 -2 -7 -7 -16 -10 -8 -3 -12 -2
-9 4 6 10 25 14 25 6z m340 0 c0 -2 -7 -7 -16 -10 -8 -3 -12 -2 -9 4 6 10 25
14 25 6z m690 -6 c13 -9 13 -10 0 -9 -8 0 -24 4 -35 9 l-20 9 20 0 c11 0 27
-4 35 -9z m-750 -23 c0 -2 -10 -12 -22 -23 l-23 -19 19 23 c18 21 26 27 26 19z
m-3800 -47 c0 -13 -1 -13 -10 0 -8 12 -10 10 -10 -8 0 -13 4 -20 10 -17 6 3
10 2 10 -4 0 -5 -4 -12 -9 -16 -14 -8 -24 32 -16 63 5 20 8 23 16 11 5 -7 9
-21 9 -29z m4596 -24 c-24 -53 -227 -407 -260 -451 -8 -11 -18 -17 -21 -13 -4
4 40 89 98 190 152 264 198 340 203 335 3 -2 -6 -30 -20 -61z m-1088 19 c-3
-3 -9 2 -12 12 -6 14 -5 15 5 6 7 -7 10 -15 7 -18z m108 16 c-4 -5 0 -12 6
-14 7 -3 0 -6 -16 -6 -28 -1 -29 0 -10 14 22 17 27 18 20 6z m-156 -25 c0 -3
-13 -14 -28 -25 -22 -15 -29 -17 -29 -6 0 8 3 12 7 10 4 -2 16 2 26 10 21 16
24 17 24 11z m-510 -21 c10 -12 9 -15 -4 -15 -10 0 -15 4 -11 9 3 5 -3 12 -12
14 -15 4 -15 5 -2 6 9 0 22 -6 29 -14z m-2850 -29 c0 -29 -10 -39 -26 -25 -10
8 -10 16 -2 34 13 29 28 23 28 -9z m250 27 c0 -2 -7 -18 -16 -36 -17 -32 -17
-32 -26 -8 -9 26 3 48 27 48 8 0 15 -2 15 -4z m2640 -2 c0 -6 -4 -12 -8 -15
-5 -3 -9 1 -9 9 0 8 4 15 9 15 4 0 8 -4 8 -9z m573 -36 c12 -8 16 -15 9 -15
-16 0 -52 37 -52 53 0 7 5 5 11 -5 5 -10 19 -24 32 -33z m-726 20 c0 -8 -4
-12 -9 -9 -5 3 -6 10 -3 15 9 13 12 11 12 -6z m1361 -20 c-3 -13 0 -26 6 -29
6 -2 3 -5 -6 -5 -20 -1 -21 3 -12 37 8 30 18 28 12 -3z m-1209 -10 c-9 -9 -19
-11 -29 -5 -12 7 -10 11 10 18 31 12 39 6 19 -13z m810 -2 c2 -1 -5 -1 -15 -1
-11 1 -29 -2 -41 -6 -15 -5 -23 -3 -23 4 0 17 43 29 60 17 8 -6 17 -12 19 -14z
m-982 11 c-3 -4 14 -36 39 -73 25 -36 35 -53 22 -37 -59 75 -68 82 -77 66 -5
-8 -17 -24 -25 -35 -14 -18 -14 -16 0 20 16 41 32 65 42 65 3 0 3 -3 -1 -6z
m-2417 -39 c0 -16 -6 -25 -15 -25 -18 0 -18 5 -5 31 14 26 20 24 20 -6z m2675
15 c3 -5 1 -10 -4 -10 -6 0 -11 5 -11 10 0 6 2 10 4 10 3 0 8 -4 11 -10z m50
-30 c-15 -17 -16 -22 -4 -37 12 -16 12 -17 -2 -6 -9 7 -20 9 -24 5 -5 -4 -5 1
-2 11 4 9 2 17 -4 17 -6 0 -7 5 -3 11 5 8 8 8 13 0 4 -7 12 -4 21 9 8 11 16
17 19 15 2 -3 -4 -14 -14 -25z m-2907 -2 c-4 -29 -38 -38 -38 -10 0 22 8 32
27 32 9 0 13 -8 11 -22z m2622 -44 c0 -13 5 -24 11 -24 5 0 7 -5 4 -11 -5 -7
-11 -5 -18 5 -7 8 -21 16 -32 19 -18 4 -17 5 3 6 19 1 22 5 17 22 -5 15 -4 19
4 15 6 -4 11 -18 11 -32z m348 -18 c-7 -8 -16 -12 -21 -9 -11 7 2 23 19 23 12
0 12 -2 2 -14z m-3247 -39 c-10 -9 -11 -8 -5 6 3 10 9 15 12 12 3 -3 0 -11 -7
-18z m3199 8 c-7 -8 -17 -15 -23 -15 -6 0 -2 7 9 15 25 19 30 19 14 0z m-92
-20 c-3 -3 -9 2 -12 12 -6 14 -5 15 5 6 7 -7 10 -15 7 -18z m186 0 c-4 -8 -11
-15 -16 -15 -6 0 -5 6 2 15 7 8 14 15 16 15 2 0 1 -7 -2 -15z m-554 -15 c-13
-11 -25 -20 -27 -20 -2 0 2 9 9 20 7 11 19 20 27 20 9 0 6 -7 -9 -20z m50 -13
c0 -13 -7 -32 -16 -43 -15 -18 -15 -18 -5 3 6 12 11 31 11 42 0 12 2 21 5 21
3 0 5 -10 5 -23z m460 13 c0 -5 -2 -10 -4 -10 -3 0 -8 5 -11 10 -3 6 -1 10 4
10 6 0 11 -4 11 -10z m-3176 -14 c-3 -8 -13 -17 -22 -21 -13 -5 -13 -2 3 15
21 24 26 25 19 6z m2826 7 c15 9 22 9 32 -1 10 -10 8 -12 -12 -10 -21 3 -25
-1 -25 -24 1 -34 -10 -24 -18 17 -4 17 -4 25 -1 18 4 -10 10 -10 24 0z m278
-80 c17 -36 30 -68 28 -70 -2 -2 -14 18 -26 44 -12 26 -25 50 -29 53 -3 3 -12
15 -18 27 -10 18 -10 21 0 17 6 -2 27 -34 45 -71z m89 50 c-3 -3 -11 -2 -17 2
-9 6 -9 10 1 16 14 8 27 -7 16 -18z m-247 -83 c-1 -8 -8 -1 -17 15 -8 17 -21
37 -27 46 -6 8 1 2 17 -15 15 -17 27 -37 27 -46z m-340 56 c0 -2 -8 -10 -17
-17 -16 -13 -17 -12 -4 4 13 16 21 21 21 13z m225 -22 c10 -2 28 -14 40 -26
12 -13 13 -17 3 -9 -9 7 -22 10 -28 6 -6 -4 -9 -1 -8 5 2 7 -8 14 -22 16 -13
3 -29 10 -35 16 -7 8 -4 9 10 4 11 -4 29 -10 40 -12z m-73 -26 c-7 -7 -12 -8
-12 -2 0 6 3 14 7 17 3 4 9 5 12 2 2 -3 -1 -11 -7 -17z m-126 -12 c0 -14 -5
-21 -9 -17 -4 4 -5 15 -1 24 9 24 12 21 10 -7z m184 -7 c0 8 2 12 5 9 3 -3 2
-15 -3 -28 -6 -16 -17 -24 -35 -24 -14 -1 -23 2 -20 7 3 5 14 6 25 4 17 -5 19
-2 14 21 -5 20 -4 23 4 12 8 -12 10 -13 10 -1z m-70 -14 c0 -8 -4 -15 -10 -15
-5 0 -7 7 -4 15 4 8 8 15 10 15 2 0 4 -7 4 -15z m166 -5 c0 -11 -4 -20 -8 -20
-10 0 -11 24 -1 33 9 9 9 10 9 -13z m-231 -30 c-4 -12 -9 -19 -12 -17 -3 3 -2
15 2 27 4 12 9 19 12 17 3 -3 2 -15 -2 -27z m310 -10 l20 -25 -22 19 c-13 11
-23 24 -23 29 0 6 1 8 3 6 1 -2 11 -15 22 -29z m-369 -39 c4 -11 7 -11 22 2
10 9 23 13 29 9 15 -10 -13 -28 -42 -27 -16 0 -20 7 -22 35 -1 19 1 26 3 15 3
-11 7 -26 10 -34z m114 44 c0 -1 -10 -10 -22 -21 -14 -12 -18 -13 -10 -3 6 9
10 18 7 21 -3 2 2 5 10 5 8 0 15 -1 15 -2z m149 -58 c1 -5 -3 -5 -9 -2 -5 3
-10 -1 -10 -9 0 -9 -4 -16 -10 -16 -5 0 -10 4 -10 9 0 6 5 13 10 16 6 3 10 16
11 28 0 21 1 21 9 2 5 -11 9 -24 9 -28z m61 18 c0 -8 -2 -15 -4 -15 -2 0 -6 7
-10 15 -3 8 -1 15 4 15 6 0 10 -7 10 -15z m40 5 c0 -5 -4 -10 -10 -10 -23 0
-8 -31 25 -52 36 -24 40 -40 26 -103 -5 -21 -1 -41 13 -69 16 -28 18 -40 9
-43 -17 -6 -16 -27 3 -66 l15 -32 -20 25 c-13 16 -21 20 -21 11 0 -8 10 -26
23 -40 18 -21 18 -22 2 -9 -24 20 -38 13 -54 -27 -6 -16 -9 -20 -7 -9 3 16 -1
20 -14 17 -13 -4 -19 4 -24 31 -4 21 -11 34 -17 30 -6 -3 -5 3 2 14 7 12 16
19 20 17 7 -5 19 44 19 77 0 15 -5 18 -20 13 -11 -3 -20 -3 -20 2 0 4 9 14 20
21 13 8 20 8 20 1 0 -5 4 -7 10 -4 6 3 7 -1 4 -10 -7 -18 14 -47 29 -38 6 4 7
1 3 -6 -5 -7 -14 -10 -22 -7 -8 3 -14 1 -14 -4 0 -6 7 -10 15 -10 8 0 15 -6
15 -12 0 -7 7 -2 16 10 15 21 15 25 0 41 -9 10 -16 21 -16 26 0 14 -52 65 -67
65 -7 0 -13 7 -13 15 0 9 -9 15 -22 16 -22 0 -22 1 -3 8 16 6 27 1 50 -27 l31
-35 17 27 c19 29 15 66 -8 66 -7 0 -15 -3 -18 -7 -2 -5 -2 -2 -1 5 2 6 -1 12
-6 12 -6 0 -10 6 -10 13 0 8 -13 12 -35 11 -19 -1 -35 3 -35 8 0 6 12 8 30 5
27 -6 30 -4 30 18 0 16 6 25 15 25 8 0 15 -4 15 -10z m-403 -22 c-3 -8 -6 -5
-6 6 -1 11 2 17 5 13 3 -3 4 -12 1 -19z m140 0 c-3 -8 -6 -5 -6 6 -1 11 2 17
5 13 3 -3 4 -12 1 -19z m87 -23 c-18 -14 -25 -27 -21 -38 4 -11 2 -14 -8 -11
-11 5 -12 11 -2 32 17 41 27 51 44 45 12 -5 9 -10 -13 -28z m215 5 c11 -24 11
-24 -3 -6 -9 11 -16 24 -16 30 0 12 5 7 19 -24z m-265 5 c-4 -8 -11 -15 -16
-15 -6 0 -5 6 2 15 7 8 14 15 16 15 2 0 1 -7 -2 -15z m-117 -42 c-3 -10 -5 -4
-5 12 0 17 2 24 5 18 2 -7 2 -21 0 -30z m65 15 c-7 -7 -12 -21 -12 -32 0 -10
-3 -17 -6 -13 -10 10 5 57 18 57 9 0 9 -3 0 -12z m-102 -8 c0 -5 -5 -10 -11
-10 -5 0 -7 5 -4 10 3 6 8 10 11 10 2 0 4 -4 4 -10z m126 -57 c-4 -8 -13 -13
-21 -9 -9 3 -15 0 -15 -9 0 -8 9 -15 20 -15 11 0 20 6 20 13 0 7 6 21 13 31
11 16 17 17 33 7 11 -7 12 -10 4 -8 -27 7 -54 -55 -34 -76 12 -12 44 18 45 43
1 21 2 21 6 5 3 -11 9 -24 14 -29 12 -14 11 -39 -1 -31 -6 4 -8 11 -5 16 4 5
2 9 -3 9 -6 0 -12 -7 -16 -15 -8 -23 -53 -19 -61 5 -4 13 -15 20 -31 20 -14 0
-22 -4 -19 -10 3 -5 1 -10 -4 -10 -6 0 -11 7 -11 15 0 8 4 15 9 15 5 0 11 9
14 20 3 11 11 19 19 18 8 -2 15 10 17 32 5 33 5 34 9 7 2 -16 1 -36 -2 -44z
m132 30 c9 -7 12 -16 9 -20 -9 -9 -37 27 -36 47 1 13 1 13 6 0 3 -8 12 -21 21
-27z m29 15 c-3 -8 -6 -5 -6 6 -1 11 2 17 5 13 3 -3 4 -12 1 -19z m260 -35
c-3 -10 -5 -2 -5 17 0 19 2 27 5 18 2 -10 2 -26 0 -35z m-487 17 c-6 -11 -13
-20 -16 -20 -2 0 0 9 6 20 6 11 13 20 16 20 2 0 0 -9 -6 -20z m170 -9 c0 -17
-18 -21 -24 -6 -3 9 0 15 9 15 8 0 15 -4 15 -9z m-215 -40 c-14 -28 -35 -49
-35 -36 0 7 42 65 47 65 2 0 -3 -13 -12 -29z m305 3 c0 -8 -4 -13 -9 -9 -5 3
-13 -4 -16 -16 -4 -11 -9 -18 -12 -15 -6 5 23 56 32 56 3 0 5 -7 5 -16z m-289
-83 c-22 -31 -27 -66 -11 -76 6 -3 10 -11 10 -16 0 -16 -21 1 -30 25 -8 20 -9
19 -9 -6 -1 -20 -5 -26 -16 -22 -11 5 -12 11 -5 24 6 10 7 27 4 37 -4 13 -3
14 3 5 13 -17 62 56 65 95 1 25 2 25 5 -5 3 -21 -2 -42 -16 -61z m239 35 c0
-8 -7 -16 -15 -20 -20 -7 -19 -46 3 -62 10 -8 12 -13 5 -14 -7 0 5 -18 27 -40
22 -22 40 -44 40 -50 0 -5 -16 7 -35 28 -25 27 -35 32 -35 20 0 -10 5 -18 11
-18 5 0 7 -5 4 -10 -4 -6 -16 -8 -27 -4 -18 5 -19 4 -7 -9 8 -8 17 -13 22 -10
4 2 7 -7 7 -21 0 -28 18 -34 39 -13 11 10 11 8 2 -11 -9 -17 -16 -20 -30 -13
-15 9 -17 6 -14 -22 3 -31 3 -31 -7 -7 -6 14 -9 32 -7 42 5 17 -35 63 -45 53
-3 -3 -4 6 -3 20 2 14 -1 27 -6 31 -5 3 -9 15 -8 27 1 21 1 20 10 -3 5 -14 18
-31 29 -38 18 -11 20 -10 20 13 0 32 -39 58 -73 50 -29 -8 -43 -33 -27 -49 15
-15 12 -30 -4 -17 -23 19 -40 -10 -25 -43 12 -25 13 -25 31 -10 10 10 18 25
18 36 0 10 4 18 9 18 5 0 7 -8 4 -18 -2 -10 5 -26 16 -36 13 -12 21 -31 20
-50 l-1 -31 -9 31 c-7 24 -14 31 -31 30 -14 -1 -24 -8 -26 -21 -2 -11 -6 -27
-9 -35 -3 -8 -5 -19 -4 -24 1 -5 -4 -4 -11 2 -21 17 -42 -2 -36 -31 3 -15 2
-26 -1 -25 -3 1 -18 -4 -33 -10 -31 -13 -36 -33 -13 -52 8 -7 15 -20 15 -29 0
-9 21 -30 48 -48 48 -32 58 -34 50 -11 -3 7 -6 18 -8 23 -6 27 -23 45 -42 45
-17 0 -18 2 -8 15 10 13 10 19 -5 35 -16 18 -16 20 -2 20 9 0 20 -7 25 -16 6
-11 18 -15 34 -12 14 3 30 -2 38 -11 13 -14 15 -14 18 2 6 33 21 17 15 -17 -4
-28 -1 -36 16 -45 11 -6 24 -26 29 -43 5 -22 16 -35 33 -39 13 -4 -2 -5 -34
-3 -37 2 -56 0 -52 -6 3 -6 1 -10 -4 -10 -16 0 -13 -26 5 -45 19 -19 44 -4 44
26 0 11 5 19 11 19 6 0 8 -9 4 -20 -9 -30 19 -26 44 6 26 33 26 41 1 49 -16 5
-19 12 -14 33 3 15 15 33 25 41 23 17 24 25 2 47 -13 13 -14 16 -3 12 8 -2 19
-14 25 -26 5 -12 15 -23 22 -26 8 -2 5 -3 -4 -2 -20 2 -53 -34 -53 -58 0 -11
9 -16 31 -16 27 0 30 2 19 15 -6 8 -10 20 -7 27 4 8 8 5 12 -9 9 -27 30 -20
44 15 16 39 60 118 61 108 0 -5 -10 -29 -22 -53 -18 -36 -20 -48 -10 -64 13
-21 3 -26 -16 -7 -9 9 -12 9 -12 0 0 -7 -16 -22 -35 -33 -25 -15 -35 -28 -35
-46 0 -38 42 -28 55 14 6 18 14 36 19 40 5 4 5 -3 0 -17 -4 -14 -7 -50 -7 -80
1 -36 -1 -46 -6 -31 -10 37 -29 36 -38 0 -5 -18 -14 -34 -21 -37 -16 -5 -15
19 3 42 8 11 15 22 15 25 0 11 -55 5 -78 -8 -23 -12 -23 -13 -6 -32 9 -10 13
-19 8 -19 -15 0 -30 14 -38 35 -5 11 -10 15 -13 9 -6 -16 -72 17 -73 37 0 8
-6 21 -12 28 -11 10 -8 11 13 6 23 -6 28 -2 37 22 6 15 11 23 11 16 1 -7 8
-10 16 -7 19 8 20 43 1 50 -8 3 -20 19 -26 35 -9 20 -19 29 -36 29 -28 0 -34
-9 -23 -37 6 -16 14 -20 31 -17 19 5 20 4 6 -5 -9 -7 -14 -19 -11 -30 9 -36
-41 -50 -74 -19 -39 37 -82 -4 -47 -44 18 -20 17 -20 -12 1 -18 13 -37 35 -43
50 l-12 26 21 -25 21 -25 -7 28 c-5 20 -3 27 7 25 17 -4 24 31 10 45 -9 9 -14
9 -19 0 -4 -7 -8 14 -7 46 0 33 4 63 9 68 5 5 6 -5 2 -22 l-8 -30 31 29 c25
24 31 38 31 72 0 25 -6 47 -15 54 -16 13 -21 35 -6 26 5 -4 12 0 15 6 3 7 3 3
1 -9 -7 -24 6 -36 29 -27 12 5 14 10 6 19 -5 6 -7 15 -4 18 4 3 -5 9 -18 12
-21 5 -24 11 -20 38 3 23 1 29 -7 22 -6 -6 -12 -19 -14 -30 -2 -11 -13 -36
-25 -55 -13 -19 -20 -43 -17 -52 3 -10 8 -28 12 -40 4 -15 3 -19 -5 -14 -7 4
-12 16 -12 27 0 10 -4 19 -10 19 -5 0 -7 7 -4 15 4 8 1 15 -5 15 -8 0 -6 10 5
30 10 16 20 27 23 25 4 -5 45 65 57 98 3 9 13 17 20 17 8 0 14 8 14 18 0 9 4
23 9 31 7 10 9 4 8 -19 -2 -42 15 -49 31 -13 l12 28 -4 -27 c-2 -16 1 -28 5
-28 5 0 9 5 9 10 0 6 14 10 30 10 28 0 30 3 30 35 0 28 4 35 20 35 11 0 20 -6
20 -14z m-303 -38 c-3 -7 -5 -2 -5 12 0 14 2 19 5 13 2 -7 2 -19 0 -25z m359
-14 c-3 -7 2 -18 10 -24 8 -7 14 -18 14 -24 0 -6 -7 -3 -14 7 -7 9 -22 17 -32
17 -15 0 -16 2 -5 9 13 8 13 14 2 38 l-13 28 22 -20 c11 -10 19 -24 16 -31z
m241 24 c-3 -8 -6 -5 -6 6 -1 11 2 17 5 13 3 -3 4 -12 1 -19z m-477 -13 c0 -8
-4 -15 -9 -15 -5 0 -14 7 -21 15 -10 13 -9 15 9 15 12 0 21 -6 21 -15z m-2847
-32 c-7 -2 -21 -2 -30 0 -10 3 -4 5 12 5 17 0 24 -2 18 -5z m-86 -39 c-3 -3
-12 -4 -19 -1 -8 3 -5 6 6 6 11 1 17 -2 13 -5z m2753 -116 c0 -62 3 -148 7
-191 6 -77 5 -79 -15 -66 -17 11 -19 20 -15 73 3 45 2 57 -6 46 -14 -20 -14
-4 1 23 6 12 13 65 14 117 2 52 3 98 4 103 0 4 2 7 4 7 3 0 5 -51 6 -112z
m637 50 c-3 -7 -5 -2 -5 12 0 14 2 19 5 13 2 -7 2 -19 0 -25z m-666 -21 c-10
-9 -11 -8 -5 6 3 10 9 15 12 12 3 -3 0 -11 -7 -18z m559 -27 c0 -5 -5 -10 -11
-10 -5 0 -7 5 -4 10 3 6 8 10 11 10 2 0 4 -4 4 -10z m-70 -10 c0 -5 -7 -10
-15 -10 -17 0 -36 -39 -27 -55 3 -5 1 -7 -3 -2 -5 4 -18 -1 -29 -10 -18 -15
-18 -14 2 8 12 14 22 30 22 37 0 6 10 18 22 26 26 19 28 19 28 6z m-193 -32
c-3 -7 -5 -2 -5 12 0 14 2 19 5 13 2 -7 2 -19 0 -25z m-126 -30 c-26 -27 -27
-16 -3 24 12 20 18 25 20 14 2 -8 -6 -25 -17 -38z m379 5 c0 -29 -25 -11 -26
19 -1 29 0 30 12 13 8 -10 14 -25 14 -32z m42 30 c-6 -2 -10 -8 -8 -12 3 -4
-1 -8 -9 -8 -11 0 -12 4 -4 14 6 7 17 13 23 12 7 0 6 -2 -2 -6z m-1072 -14 c0
-5 4 -8 9 -5 7 4 51 -91 51 -110 0 -3 -12 -4 -27 -2 -29 3 -77 31 -68 40 3 2
0 19 -5 38 -5 18 -7 37 -4 41 7 13 44 11 44 -2z m841 -17 c-6 -2 -9 -8 -5 -13
3 -5 0 -9 -5 -9 -15 0 -14 23 1 38 10 10 14 10 17 0 2 -6 -1 -14 -8 -16z m-46
-19 c7 -30 23 -53 35 -53 5 0 13 12 18 28 l10 27 1 -31 c1 -18 8 -45 16 -60
18 -34 19 -50 4 -60 -6 -4 -9 1 -7 13 5 32 -22 73 -49 73 -13 0 -23 6 -23 14
0 7 -7 19 -15 26 -13 11 -19 9 -36 -9 -12 -12 -24 -19 -27 -16 -4 4 1 11 11
16 9 6 17 21 17 34 0 36 36 34 45 -2z m198 -31 l11 -23 12 28 13 28 -6 -30
c-8 -41 -10 -42 -36 -17 -13 12 -28 22 -35 22 -6 0 -13 4 -16 9 -4 5 3 7 14 4
15 -4 20 0 21 13 0 14 2 15 6 4 2 -8 9 -25 16 -38z m-63 -24 c0 -10 -4 -18
-10 -18 -5 0 -10 -7 -10 -15 0 -8 -5 -15 -11 -15 -7 0 -5 9 4 24 9 13 13 34
11 47 -5 19 -4 21 5 9 6 -8 11 -23 11 -32z m110 -39 c0 -6 -4 -7 -10 -4 -5 3
-10 11 -10 16 0 6 5 7 10 4 6 -3 10 -11 10 -16z m-950 -9 c3 -1 -39 -12 -92
-25 -94 -24 -190 -63 -203 -85 -12 -19 -45 -11 -45 11 0 49 248 122 340 99z
m499 -60 c0 -10 -3 -8 -9 5 -12 27 -12 43 0 25 5 -8 9 -22 9 -30z m308 -6 c-3
-3 -12 -4 -19 -1 -8 3 -5 6 6 6 11 1 17 -2 13 -5z m-472 -14 c-3 -5 -12 -10
-18 -10 -7 0 -6 4 3 10 19 12 23 12 15 0z m405 0 c0 -5 -4 -10 -10 -10 -5 0
-10 5 -10 10 0 6 5 10 10 10 6 0 10 -4 10 -10z m-250 -65 c0 -16 -27 -28 -35
-15 -7 12 17 40 28 33 4 -2 7 -10 7 -18z m-570 7 c0 -5 -3 -12 -7 -16 -5 -4
-8 -13 -8 -19 0 -7 -8 -13 -19 -15 -11 -3 -16 0 -12 7 4 6 3 11 -3 11 -5 0
-13 -5 -16 -10 -4 -6 -11 -8 -16 -5 -5 3 -6 -1 -3 -10 5 -11 2 -14 -10 -9 -9
3 -16 15 -16 25 0 16 8 19 45 19 43 0 60 12 33 23 -7 3 -3 6 10 6 12 1 22 -3
22 -7z m616 -21 c-6 -9 43 -26 51 -18 2 3 37 -12 76 -33 40 -21 115 -59 167
-86 107 -55 132 -73 123 -88 -4 -6 1 -5 10 3 16 13 15 26 -2 26 -4 0 -15 8
-25 18 -10 9 -24 17 -31 17 -8 0 -17 5 -20 11 -13 20 71 -22 100 -52 25 -25
28 -31 15 -39 -13 -8 -12 -10 4 -10 11 0 16 -3 13 -7 -10 -10 -87 28 -80 40 4
6 -2 8 -16 4 -14 -3 -24 0 -28 9 -3 8 -14 14 -24 14 -10 0 -19 5 -19 10 0 6
-6 10 -12 9 -25 -3 -39 1 -34 10 3 5 0 9 -7 8 -34 -1 -48 4 -41 15 4 6 3 8 -4
4 -14 -9 -83 25 -75 37 3 6 1 7 -5 3 -13 -8 -83 24 -76 36 3 4 0 8 -6 8 -6 0
-8 4 -5 10 3 6 -1 7 -10 3 -13 -5 -14 -7 -3 -14 7 -5 9 -9 5 -9 -4 0 -23 16
-43 35 -31 31 -32 35 -14 35 12 0 19 -4 16 -9z m101 -13 c-3 -8 -6 -5 -6 6 -1
11 2 17 5 13 3 -3 4 -12 1 -19z m-2972 2 c-3 -5 -14 -10 -23 -9 -14 0 -13 2 3
9 27 11 27 11 20 0z m2482 4 c-3 -3 -12 -4 -19 -1 -8 3 -5 6 6 6 11 1 17 -2
13 -5z m220 -10 c-3 -3 -12 -4 -19 -1 -8 3 -5 6 6 6 11 1 17 -2 13 -5z m-569
-33 c6 -4 8 -12 3 -19 -12 -19 -44 9 -35 32 5 12 9 14 14 6 4 -7 12 -15 18
-19z m387 11 c-3 -3 -11 0 -18 7 -9 10 -8 11 6 5 10 -3 15 -9 12 -12z m760
-65 c-16 -40 -29 -47 -39 -21 -4 11 -2 15 8 11 10 -4 19 5 27 31 7 20 14 32
16 26 2 -6 -3 -27 -12 -47z m-105 -7 c0 -5 -2 -10 -4 -10 -3 0 -8 5 -11 10 -3
6 -1 10 4 10 6 0 11 -4 11 -10z m-317 -54 c4 -10 1 -13 -8 -9 -8 3 -12 9 -9
14 7 12 11 11 17 -5z m-78 -45 c3 -5 1 -12 -5 -16 -5 -3 -10 1 -10 9 0 18 6
21 15 7z m92 -16 c0 -8 -4 -12 -9 -9 -4 3 -8 9 -8 15 0 5 4 9 8 9 5 0 9 -7 9
-15z m-54 -32 c10 -9 -31 -35 -43 -28 -18 11 -10 23 12 17 14 -3 19 -2 14 6
-8 13 6 17 17 5z m363 -139 c-3 -7 4 -10 17 -7 20 4 21 4 3 -7 -14 -10 -23 -9
-41 0 -13 7 -28 10 -33 6 -6 -3 -14 -1 -18 5 -4 7 -3 9 4 5 6 -3 13 -2 16 3 8
13 57 8 52 -5z m340 4 c4 -7 4 -10 -1 -6 -5 5 -24 -4 -44 -18 l-36 -26 33 31
c37 35 38 36 48 19z m-66 -2 c0 -2 -7 -9 -15 -16 -13 -11 -14 -10 -9 4 5 14
24 23 24 12z m110 -10 c0 -3 -4 -8 -10 -11 -5 -3 -10 -1 -10 4 0 6 5 11 10 11
6 0 10 -2 10 -4z m-175 -26 c3 -5 1 -10 -4 -10 -6 0 -11 5 -11 10 0 6 2 10 4
10 3 0 8 -4 11 -10z m150 1 c7 -12 -12 -24 -25 -16 -11 7 -4 25 10 25 5 0 11
-4 15 -9z m55 -31 c0 -5 -7 -7 -15 -4 -8 4 -15 8 -15 10 0 2 7 4 15 4 8 0 15
-4 15 -10z m-360 -14 c-4 -4 -21 -4 -37 2 -28 10 -28 10 9 8 21 0 33 -5 28
-10z m295 -16 c-3 -5 -12 -10 -18 -10 -7 0 -6 4 3 10 19 12 23 12 15 0z m165
1 c17 -5 7 -7 -33 -7 -34 0 -50 3 -40 7 22 9 41 9 73 0z m-180 -31 c0 -5 -4
-10 -10 -10 -5 0 -10 5 -10 10 0 6 5 10 10 10 6 0 10 -4 10 -10z m310 -10 c0
-5 -12 -10 -27 -9 l-28 1 25 8 c14 4 26 8 28 9 1 1 2 -3 2 -9z m53 -27 c-7 -2
-21 -2 -30 0 -10 3 -4 5 12 5 17 0 24 -2 18 -5z m-78 -13 c-27 -12 -43 -12
-25 0 8 5 22 9 30 9 10 0 8 -3 -5 -9z m145 0 c0 -5 -19 -8 -42 -8 -24 0 -35 3
-26 7 27 9 68 10 68 1z m-130 -20 c0 -5 -4 -10 -10 -10 -5 0 -10 5 -10 10 0 6
5 10 10 10 6 0 10 -4 10 -10z m87 -7 c-9 -2 -14 -9 -11 -15 4 -7 2 -8 -4 -4
-20 12 -13 26 11 25 17 -1 18 -2 4 -6z m3169 -88 c13 -31 24 -68 24 -83 l0
-27 -20 33 c-11 18 -20 42 -20 55 0 12 -7 34 -14 50 -8 15 -10 27 -5 27 6 0
21 -25 35 -55z m-1499 -1 c-3 -3 -12 -4 -19 -1 -8 3 -5 6 6 6 11 1 17 -2 13
-5z m73 -4 c-13 -9 -13 -10 0 -10 8 -1 35 -33 60 -72 25 -39 88 -117 140 -173
124 -132 170 -183 170 -189 0 -4 -78 23 -184 65 -72 28 -443 118 -544 131 -48
7 -79 14 -69 16 9 2 17 7 17 10 0 4 22 7 49 7 27 0 48 -2 46 -5 -2 -3 58 -6
133 -6 110 -1 149 -5 197 -22 33 -11 62 -19 64 -16 3 2 -5 21 -16 42 -12 20
-32 57 -45 82 -48 89 -49 90 -103 91 -29 1 -39 4 -22 6 16 3 25 9 21 15 -5 7
-2 8 5 4 8 -5 14 0 18 13 4 17 13 21 42 21 27 0 32 -3 21 -10z m1170 6 c0 -3
-4 -8 -10 -11 -5 -3 -10 -1 -10 4 0 6 5 11 10 11 6 0 10 -2 10 -4z m-34 -18
c4 -7 3 -8 -4 -4 -7 4 -12 2 -12 -5 0 -7 -3 -10 -6 -6 -6 5 3 27 11 27 2 0 7
-5 11 -12z m-1240 -5 c-10 -11 -37 -12 -30 -2 3 5 12 9 21 9 9 0 13 -3 9 -7z
m1184 2 c0 -3 -9 -15 -19 -26 l-19 -21 -11 20 c-11 21 -11 21 42 31 4 0 7 -1
7 -4z m-86 -18 c-67 -38 -70 -39 -41 -13 15 14 36 26 45 26 14 0 13 -3 -4 -13z
m46 -115 c0 -5 -9 -17 -20 -27 -18 -17 -20 -17 -14 -2 3 9 10 17 16 17 5 0 6
5 3 10 -3 6 -1 10 4 10 6 0 11 -4 11 -8z m59 -66 c-2 -19 -2 -19 -6 2 -2 12
-9 22 -14 22 -5 0 -9 8 -9 18 1 15 2 15 15 -2 8 -11 14 -29 14 -40z m-1554 -6
c-3 -5 -16 -10 -28 -9 -20 1 -20 2 3 9 14 4 26 8 28 9 2 1 0 -3 -3 -9z m1525
-33 c0 -2 -10 -12 -22 -23 l-23 -19 19 23 c18 21 26 27 26 19z m-113 -52 c0
-8 -11 -25 -24 -37 -12 -12 -23 -16 -23 -10 0 6 10 18 22 26 12 9 19 16 15 16
-5 0 -5 5 -2 10 9 14 12 13 12 -5z m-498 -103 c5 -2 6 -12 3 -24 -3 -13 -1
-19 5 -15 5 3 10 -1 10 -9 0 -8 -5 -13 -11 -11 -20 7 -36 52 -35 102 l1 50 9
-45 c5 -25 13 -46 18 -48z m308 34 c0 -8 -6 -12 -15 -9 -11 5 -11 7 0 14 7 5
13 9 14 9 0 0 1 -6 1 -14z m133 4 c0 -5 -5 -10 -11 -10 -5 0 -7 5 -4 10 3 6 8
10 11 10 2 0 4 -4 4 -10z m-183 -16 c-3 -3 -12 -4 -19 -1 -8 3 -5 6 6 6 11 1
17 -2 13 -5z m-983 -123 c4 -5 -3 -7 -14 -4 -23 6 -26 13 -6 13 8 0 17 -4 20
-9z m46 -1 c-8 -5 -19 -10 -25 -10 -5 0 -3 5 5 10 8 5 20 10 25 10 6 0 3 -5
-5 -10z m-124 -35 c1 -8 -4 -15 -12 -15 -8 0 -14 5 -14 10 0 6 5 10 11 10 5 0
7 6 3 13 -4 6 -3 8 1 4 5 -4 10 -14 11 -22z m58 13 c-7 -11 -32 -10 -39 2 -3
6 4 9 19 8 13 -1 22 -6 20 -10z m269 5 c-7 -2 -21 -2 -30 0 -10 3 -4 5 12 5
17 0 24 -2 18 -5z m-418 -54 c3 6 11 11 17 11 5 0 0 -9 -13 -19 -28 -22 -39
-19 -39 12 1 21 1 21 14 4 9 -12 16 -14 21 -8z m-725 -107 c0 -5 7 -17 16 -28
8 -10 13 -14 10 -8 -9 19 24 25 41 8 8 -8 14 -16 12 -18 -13 -11 -227 -66
-271 -70 -29 -2 -65 -9 -80 -15 -16 -6 -28 -8 -28 -6 0 7 -120 -56 -149 -77
-31 -23 -36 -17 -17 20 19 36 74 84 87 76 6 -3 20 2 32 12 18 15 17 13 -3 -9
l-25 -28 29 5 c16 3 40 15 54 28 14 13 22 17 18 11 -10 -18 24 -17 49 1 11 7
24 14 28 14 20 1 18 12 -1 12 -12 0 -22 -5 -22 -12 0 -6 -2 -9 -5 -6 -3 3 -3
12 0 21 7 17 45 31 45 16 0 -5 4 -9 10 -9 5 0 7 8 3 18 -6 15 -5 16 13 2 10
-8 29 -20 40 -27 19 -10 23 -9 27 9 4 13 11 19 21 15 8 -3 17 1 20 9 3 9 9 13
14 10 4 -2 14 -1 22 5 12 7 10 9 -8 9 -13 0 -20 4 -17 10 7 12 35 13 35 2z
m112 -34 c-6 -6 -15 -8 -19 -4 -4 4 -1 11 7 16 19 12 27 3 12 -12z m938 -18
c0 -5 -7 -6 -17 -3 -11 4 -14 3 -9 -5 4 -7 3 -12 -3 -12 -13 0 -22 15 -14 24
10 10 43 7 43 -4z m-224 -19 c-8 -13 -29 -65 -29 -71 1 -3 -5 -11 -13 -18 -11
-10 -14 -10 -14 2 0 8 5 18 10 21 6 4 8 10 5 15 -5 7 31 60 41 60 3 0 3 -4 0
-9z m257 -35 c4 -10 1 -13 -8 -9 -8 3 -12 9 -9 14 7 12 11 11 17 -5z m-3143
-37 c0 -6 -4 -7 -10 -4 -5 3 -10 11 -10 16 0 6 5 7 10 4 6 -3 10 -11 10 -16z
m3147 5 c-3 -3 -12 -4 -19 -1 -8 3 -5 6 6 6 11 1 17 -2 13 -5z m-3057 -50 c0
-2 -9 0 -20 6 -11 6 -20 13 -20 16 0 2 9 0 20 -6 11 -6 20 -13 20 -16z m2992
-4 c-12 -12 -22 -18 -22 -14 0 10 34 42 39 38 3 -2 -5 -13 -17 -24z m-692 -30
c-34 -11 -60 -11 -35 0 11 5 29 8 40 8 16 0 15 -2 -5 -8z m525 -10 c28 -4 55
-3 62 2 7 6 13 4 15 -4 4 -10 8 -10 22 1 9 8 19 11 22 8 3 -3 -5 -13 -19 -21
-19 -13 -30 -14 -51 -6 -15 5 -50 10 -77 10 -40 0 -49 -3 -49 -17 0 -16 2 -16
11 -3 8 12 9 10 4 -7 -4 -14 0 -25 11 -31 9 -5 15 -15 12 -22 -2 -7 -15 5 -29
26 -28 44 -28 90 -1 78 9 -4 40 -10 67 -14z m-365 -15 c-15 -18 -71 -25 -92
-11 -15 9 -10 13 34 21 59 12 74 10 58 -10z m118 -2 c-15 -2 -42 -2 -60 0 -18
2 -6 4 27 4 33 0 48 -2 33 -4z m-2525 -34 c15 -27 15 -31 1 -25 -8 3 -20 6
-25 6 -5 0 -8 11 -7 25 3 33 9 31 31 -6z m2212 -39 c-10 -11 -23 -20 -29 -20
-6 0 0 9 14 20 32 25 38 25 15 0z m55 7 c0 -14 -20 -37 -32 -37 -4 0 -8 5 -8
10 0 6 7 10 15 10 18 0 20 16 3 23 -8 3 -6 6 5 6 9 1 17 -5 17 -12z m-1610 -7
c0 -5 -7 -10 -16 -10 -8 0 -12 5 -9 10 3 6 10 10 16 10 5 0 9 -4 9 -10z m1417
-39 c1 -16 -9 -26 -37 -36 -3 -1 -13 -5 -23 -10 -10 -4 -21 -5 -24 -1 -4 3 1
6 11 6 9 0 14 5 11 10 -3 6 0 10 7 10 7 0 19 9 26 20 15 25 27 26 29 1z
m-1408 -3 c15 -9 26 -9 44 -1 29 13 50 3 41 -20 -4 -13 -1 -17 14 -17 12 0 24
-4 27 -10 11 -19 -35 -10 -55 10 -13 13 -33 20 -59 20 -38 0 -57 10 -44 24 9
8 10 8 32 -6z m1481 8 c0 -11 -19 -15 -25 -6 -3 5 1 10 9 10 9 0 16 -2 16 -4z
m220 -31 c0 -8 -4 -15 -10 -15 -5 0 -7 7 -4 15 4 8 8 15 10 15 2 0 4 -7 4 -15z
m-50 -15 c-8 -5 -19 -10 -25 -10 -5 0 -3 5 5 10 8 5 20 10 25 10 6 0 3 -5 -5
-10z m-30 -20 c13 -9 13 -10 0 -10 -9 0 -32 -8 -53 -19 -28 -14 -57 -18 -127
-18 -84 1 -111 10 -75 23 8 4 12 10 9 15 -3 5 12 3 33 -6 35 -14 44 -13 108 4
87 23 87 23 105 11z m-2003 -65 c0 -8 -4 -12 -9 -9 -4 3 -8 9 -8 15 0 5 4 9 8
9 5 0 9 -7 9 -15z m-2213 -649 c-5 15 -4 16 4 4 6 -8 8 -18 6 -22 -5 -8 -34
-11 -34 -4 0 2 -3 13 -7 23 -6 17 -5 17 16 -1 22 -20 22 -20 15 0z"/>
<path d="M6764 7665 c-18 -28 -31 -105 -17 -105 12 0 57 49 73 78 25 50 -25
74 -56 27z"/>
<path d="M7711 7679 c-27 -29 -38 -97 -18 -116 22 -22 56 -7 73 33 33 79 -5
137 -55 83z"/>
<path d="M6510 7160 c0 -15 5 -20 18 -18 9 2 17 10 17 18 0 8 -8 16 -17 18
-13 2 -18 -3 -18 -18z"/>
<path d="M7159 7133 c-13 -16 -12 -17 4 -4 9 7 17 15 17 17 0 8 -8 3 -21 -13z"/>
<path d="M7472 7138 c-6 -6 -12 -19 -12 -27 0 -13 2 -13 16 1 9 9 15 21 13 27
-3 9 -8 8 -17 -1z"/>
<path d="M7325 7124 c-20 -30 -10 -48 11 -20 13 18 19 46 10 46 -2 0 -11 -12
-21 -26z"/>
<path d="M6882 7138 c-14 -14 -16 -42 -2 -33 14 9 32 45 22 45 -4 0 -13 -5
-20 -12z"/>
<path d="M5140 6239 c0 -5 5 -7 10 -4 6 3 10 2 10 -4 0 -21 51 -62 70 -56 12
4 25 -3 40 -22 16 -20 24 -24 28 -14 2 8 7 9 11 3 8 -13 51 -26 51 -15 0 12
-58 35 -70 28 -5 -3 -10 1 -10 9 0 9 -4 16 -10 16 -5 0 -30 16 -56 35 -46 35
-74 44 -74 24z"/>
<path d="M5175 6170 c10 -11 15 -23 12 -27 -4 -3 -7 -1 -7 6 0 7 -4 9 -10 6
-32 -20 16 -39 61 -23 44 15 37 33 -12 29 -9 -1 -22 5 -29 14 -7 8 -17 15 -23
15 -5 0 -2 -9 8 -20z"/>
<path d="M4945 6150 c-3 -5 -1 -10 4 -10 6 0 11 5 11 10 0 6 -2 10 -4 10 -3 0
-8 -4 -11 -10z"/>
<path d="M5038 6138 c5 -5 16 -8 23 -6 8 3 3 7 -10 11 -17 4 -21 3 -13 -5z"/>
<path d="M5248 6122 c-7 -2 -20 -6 -28 -9 -8 -3 -26 -5 -40 -4 -19 1 -22 0
-10 -8 8 -5 18 -7 22 -5 4 3 8 -1 8 -8 0 -9 3 -9 10 2 9 13 10 13 11 0 1 -8 1
-18 1 -21 -2 -13 119 -80 153 -86 42 -7 46 8 13 45 -18 20 -19 24 -5 19 13 -5
17 -1 17 16 0 14 -3 18 -8 10 -5 -8 -13 -9 -22 -3 -20 13 -33 12 -25 0 3 -5
-1 -10 -9 -10 -31 0 -25 19 9 26 27 5 35 11 35 28 -1 20 -1 20 -14 3 -12 -16
-18 -17 -38 -6 -24 13 -56 17 -80 11z m49 -48 c0 -6 -9 -9 -19 -6 -27 7 -29
17 -4 17 13 0 23 -5 23 -11z m49 -71 c-3 -4 -6 -1 -6 6 0 7 -4 9 -10 6 -6 -4
-7 1 -3 11 6 15 7 15 15 -1 6 -9 7 -19 4 -22z m41 2 c0 -20 -4 -19 -17 5 -8
15 -8 18 3 14 8 -3 14 -11 14 -19z"/>
<path d="M5109 6058 c-17 -33 -18 -33 -32 -14 -12 17 -14 17 -27 -1 -8 -10
-11 -15 -6 -11 4 3 19 0 34 -8 18 -9 28 -10 33 -3 5 8 9 8 13 0 4 -6 4 -15 1
-21 -9 -14 18 -13 33 2 18 18 -4 51 -29 43 -18 -6 -19 -5 -10 14 7 12 9 21 7
21 -3 0 -11 -10 -17 -22z"/>
<path d="M5160 6065 c0 -9 5 -15 11 -13 6 2 11 8 11 13 0 5 -5 11 -11 13 -6 2
-11 -4 -11 -13z"/>
<path d="M5024 6013 c19 -23 19 -23 -3 -23 -12 0 -20 -4 -17 -9 8 -13 61 -8
59 6 -2 8 4 10 14 6 11 -4 14 -3 9 5 -4 7 -17 12 -30 12 -12 0 -28 6 -36 13
-8 6 -6 2 4 -10z"/>
<path d="M4957 5969 c7 -7 15 -10 18 -7 3 3 -2 9 -12 12 -14 6 -15 5 -6 -5z"/>
<path d="M5134 5972 c3 -5 -1 -15 -9 -22 -19 -16 -10 -30 20 -30 20 0 23 4 21
28 -2 16 -10 28 -21 30 -9 2 -15 -1 -11 -6z"/>
<path d="M5042 5953 c-10 -4 -10 -8 -1 -19 8 -10 16 -11 30 -3 33 17 7 37 -29
22z"/>
<path d="M5288 5953 c7 -3 16 -2 19 1 4 3 -2 6 -13 5 -11 0 -14 -3 -6 -6z"/>
<path d="M5186 5942 c-3 -6 -1 -14 5 -17 15 -10 25 3 12 16 -7 7 -13 7 -17 1z"/>
<path d="M5070 5910 c-9 -6 -6 -11 11 -20 22 -12 25 -11 32 16 3 10 -28 13
-43 4z"/>
<path d="M5355 5896 c-63 -23 -151 -71 -161 -88 -3 -5 -1 -15 5 -21 8 -8 11
-8 11 1 0 7 5 12 11 12 6 0 9 -6 6 -13 -3 -7 23 -32 64 -60 38 -26 71 -47 73
-47 2 0 2 9 -1 20 -5 18 -15 25 -36 21 -5 -1 -6 3 -3 8 7 11 45 3 47 -10 1 -5
3 -13 4 -19 1 -5 3 -17 4 -25 1 -12 9 -14 33 -10 26 5 29 4 19 -9 -14 -17 0
-29 24 -20 8 4 15 3 13 -2 -1 -5 13 -25 31 -44 20 -21 31 -28 27 -16 -10 30
-73 258 -83 300 -4 22 -13 40 -18 42 -6 1 -37 -8 -70 -20z m10 -34 c3 -9 12
-12 23 -7 35 14 52 14 52 -1 0 -8 -4 -14 -10 -14 -5 0 -10 4 -10 10 0 5 -7 7
-15 4 -8 -4 -13 -10 -10 -14 3 -5 1 -11 -5 -15 -5 -3 -10 -1 -10 5 0 7 -7 9
-17 6 -10 -4 -14 -4 -10 0 4 4 0 15 -8 24 -13 14 -13 17 0 17 8 0 17 -7 20
-15z m-35 -38 c0 -6 7 -11 15 -12 8 -1 21 -3 29 -4 8 -1 12 -8 9 -15 -4 -10
-9 -11 -16 -4 -6 6 -19 11 -29 11 -11 0 -18 7 -18 20 0 11 -7 23 -15 26 -8 4
-12 10 -9 16 6 10 33 -20 34 -38z m100 -8 c0 -8 -7 -16 -15 -20 -8 -3 -15 -13
-15 -22 0 -10 -3 -15 -6 -11 -8 7 18 67 28 67 5 0 8 -6 8 -14z m-154 -23 c-7
-7 -26 7 -26 19 0 6 6 6 15 -2 9 -7 13 -15 11 -17z m184 -43 c0 -5 -2 -10 -4
-10 -3 0 -8 5 -11 10 -3 6 -1 10 4 10 6 0 11 -4 11 -10z m-35 -50 c-3 -5 1
-10 9 -10 8 0 17 -4 21 -10 3 -5 -7 -5 -25 1 -32 12 -41 29 -14 29 8 0 12 -4
9 -10z m49 -6 c3 -8 2 -12 -4 -9 -6 3 -10 10 -10 16 0 14 7 11 14 -7z"/>
<path d="M5168 5898 c8 -8 17 -8 34 0 22 10 21 11 -11 11 -27 1 -32 -2 -23
-11z"/>
<path d="M5130 5889 c0 -5 4 -8 9 -4 5 3 12 1 16 -5 3 -5 11 -10 18 -10 6 0 2
7 -9 15 -23 17 -34 19 -34 4z"/>
<path d="M5153 5823 c9 -2 23 -2 30 0 6 3 -1 5 -18 5 -16 0 -22 -2 -12 -5z"/>
<path d="M5125 5800 c3 -5 11 -10 16 -10 6 0 7 5 4 10 -3 6 -11 10 -16 10 -6
0 -7 -4 -4 -10z"/>
<path d="M5079 5783 c-1 -5 -1 -11 0 -15 0 -5 -6 -8 -15 -8 -24 0 -75 -40 -68
-52 4 -6 2 -8 -4 -4 -12 7 -282 -180 -282 -196 0 -5 6 -8 13 -5 6 2 11 10 9
16 -1 7 2 9 9 6 6 -4 26 1 44 11 25 13 31 21 24 30 -7 9 -5 12 8 9 23 -3 55
13 48 25 -4 6 1 7 11 3 13 -5 16 -3 11 10 -5 13 -1 17 18 17 24 0 91 49 67 50
-7 0 -10 5 -6 11 4 8 9 7 14 -2 6 -10 17 -6 44 15 47 36 86 72 86 80 0 9 -30
8 -31 -1z"/>
<path d="M5162 5775 c1 -9 8 -16 13 -17 6 -1 15 -8 21 -16 6 -8 16 -12 23 -8
7 5 10 2 9 -5 -3 -12 1 -14 34 -18 6 0 8 -4 5 -7 -7 -7 60 -64 74 -64 28 0 10
23 -47 61 -36 24 -82 54 -101 67 -28 19 -34 20 -31 7z"/>
<path d="M5112 5746 c7 -8 16 -12 21 -9 11 7 -2 23 -19 23 -12 0 -12 -2 -2
-14z"/>
<path d="M5055 5715 c-16 -14 -37 -31 -45 -38 -8 -8 -31 -24 -50 -37 -19 -13
-37 -25 -38 -26 -8 -5 20 -74 29 -74 20 0 49 21 49 36 0 8 -5 12 -11 8 -8 -4
-8 0 0 15 6 11 21 26 34 32 22 11 22 11 -1 -11 -19 -18 -21 -24 -10 -31 21
-13 31 -11 62 16 16 14 33 25 38 25 5 0 4 9 -2 21 -11 19 -13 20 -30 4 -21
-19 -35 -14 -43 15 -3 14 -1 20 6 17 7 -2 11 -12 11 -21 -1 -9 2 -16 7 -16 5
0 9 5 9 11 0 6 9 22 20 36 18 23 19 43 2 43 -4 0 -20 -12 -37 -25z m15 -25 c0
-5 -2 -10 -4 -10 -3 0 -8 5 -11 10 -3 6 -1 10 4 10 6 0 11 -4 11 -10z"/>
<path d="M5172 5714 c10 -10 20 -15 24 -12 3 4 -5 12 -18 18 -22 12 -22 12 -6
-6z"/>
<path d="M5121 5697 c-1 -10 7 -20 17 -23 9 -3 24 -9 34 -14 27 -15 30 17 2
35 -23 15 -25 14 -31 -1 -6 -16 -7 -16 -14 2 -7 17 -8 17 -8 1z"/>
<path d="M5220 5680 c6 -11 16 -17 22 -14 7 5 8 2 3 -6 -5 -9 -4 -11 3 -6 16
10 16 11 -14 31 -25 16 -25 16 -14 -5z"/>
<path d="M5138 5653 c6 -2 9 -9 6 -14 -8 -14 15 -39 37 -39 9 0 24 7 33 15 19
20 25 19 23 -4 0 -11 -5 -17 -9 -15 -4 3 -8 0 -8 -5 0 -6 4 -11 9 -11 5 0 16
-2 24 -5 20 -8 18 25 -5 58 -23 32 -53 37 -45 7 3 -11 3 -20 1 -20 -3 0 -14 9
-26 20 -12 11 -29 20 -37 19 -11 0 -12 -2 -3 -6z"/>
<path d="M5280 5640 c9 -6 11 -10 3 -10 -7 0 -10 -7 -7 -15 5 -12 10 -12 27
-4 20 11 20 12 2 25 -10 8 -24 14 -29 14 -6 0 -4 -5 4 -10z"/>
<path d="M5357 5644 c-3 -4 -2 -15 4 -25 7 -14 17 -17 42 -14 26 4 28 3 7 -3
-17 -5 -21 -10 -12 -16 6 -4 17 -4 24 0 6 4 8 3 4 -4 -7 -12 29 -26 44 -17 10
6 -39 54 -77 74 -25 13 -28 13 -36 5z"/>
<path d="M5072 5592 c-28 -18 -41 -33 -38 -44 2 -9 -2 -19 -10 -22 -8 -3 -11
0 -7 10 7 18 -16 18 -41 -1 -19 -15 -19 -16 15 -52 55 -59 61 -63 76 -44 12
14 12 14 6 -4 -11 -34 -14 -36 -31 -23 -13 11 -15 11 -8 -2 8 -15 -7 2 -40 45
-10 13 -21 22 -26 19 -4 -3 -16 0 -25 6 -15 9 -14 10 6 4 16 -4 21 -3 17 5
-10 16 -41 14 -56 -4 -7 -8 -23 -15 -37 -15 -13 0 -26 -7 -29 -15 -4 -8 -11
-12 -17 -8 -5 3 -7 1 -4 -4 4 -6 18 -8 33 -5 19 3 22 7 12 13 -9 6 -9 9 -1 9
19 0 24 -17 8 -30 -20 -16 -10 -30 16 -23 16 5 19 11 14 30 -4 18 -2 24 7 20
7 -2 12 -12 11 -23 -1 -10 6 -24 15 -30 15 -12 14 -12 -5 -7 -33 8 -28 -3 9
-21 36 -19 58 -20 58 -5 0 5 4 8 9 5 5 -3 14 0 20 8 6 7 22 11 35 9 19 -4 23
-1 24 24 1 34 -30 79 -47 69 -6 -4 -8 -12 -5 -18 4 -5 -4 -4 -17 3 -15 7 -19
14 -11 17 6 2 10 7 8 10 -2 4 14 8 36 9 34 2 38 1 28 -12 -10 -12 -9 -16 3
-21 9 -3 20 -4 24 -1 4 3 7 -15 7 -39 -2 -41 -1 -43 19 -32 20 10 20 11 1 25
-18 14 -18 15 6 13 14 -1 32 -2 40 -1 13 1 13 2 0 11 -13 8 -13 11 -1 22 9 8
11 9 7 1 -7 -14 10 -27 24 -18 12 8 1 35 -15 35 -7 0 -11 9 -8 23 4 22 -48
108 -65 106 -4 0 -26 -13 -50 -27z m14 -37 c10 -8 14 -15 8 -15 -5 0 -19 7
-30 15 -10 8 -14 15 -8 15 5 0 19 -7 30 -15z m65 -33 c23 4 26 2 17 -9 -7 -8
-19 -11 -32 -6 -12 3 -37 10 -56 14 -30 6 -31 7 -8 8 15 0 30 7 35 14 5 9 9 7
11 -6 3 -15 11 -18 33 -15z m-147 -91 c3 -5 -3 -11 -15 -14 -16 -4 -18 -3 -8
9 13 16 16 17 23 5z"/>
<path d="M4820 5544 c-69 -48 -78 -58 -61 -69 6 -3 11 -2 11 3 0 5 11 12 25
14 14 3 25 1 25 -3 0 -5 -5 -9 -11 -9 -5 0 -7 -5 -3 -12 5 -8 1 -9 -12 -4 -14
5 -16 4 -8 -4 8 -8 17 -9 30 -2 11 6 42 21 69 33 28 12 51 23 53 25 8 6 -29
74 -40 73 -7 0 -42 -20 -78 -45z"/>
<path d="M5182 5574 c4 -21 22 -23 26 -1 2 10 -3 17 -13 17 -10 0 -15 -6 -13
-16z"/>
<path d="M5285 5580 c3 -5 8 -10 11 -10 2 0 4 5 4 10 0 6 -5 10 -11 10 -5 0
-7 -4 -4 -10z"/>
<path d="M5320 5571 c-14 -28 -13 -41 6 -41 8 0 13 -4 9 -10 -3 -5 -13 -6 -23
-3 -15 6 -15 4 2 -15 11 -12 16 -25 13 -28 -4 -4 -9 1 -13 10 -8 20 -28 21
-44 1 -7 -8 -17 -15 -22 -15 -6 0 4 16 22 36 35 40 32 48 -20 58 -32 6 -33 5
-15 -9 11 -8 16 -15 10 -14 -30 4 -45 -3 -45 -21 0 -11 6 -20 14 -20 16 0 29
-40 17 -54 -5 -6 -11 -24 -13 -40 -3 -27 0 -30 32 -33 26 -3 31 -1 20 7 -13 9
-13 10 0 11 34 2 55 9 58 19 2 5 8 8 13 4 9 -5 134 58 158 82 13 11 10 15 -19
28 -19 7 -41 11 -49 8 -9 -3 -12 -1 -7 6 7 12 -5 16 -33 13 -7 -2 -10 2 -7 8
6 10 -23 31 -43 31 -6 0 -15 -9 -21 -19z m82 -43 c-7 -7 -12 -8 -12 -2 0 14
12 26 19 19 2 -3 -1 -11 -7 -17z m14 -38 c16 0 19 -16 4 -25 -5 -3 -10 -1 -10
4 0 6 -15 12 -32 12 -24 1 -27 3 -10 6 12 2 22 10 23 16 0 9 2 8 6 0 2 -7 11
-13 19 -13z m-58 -45 c0 -28 -10 -32 -28 -10 -7 8 -17 12 -23 8 -6 -3 -7 -1
-3 6 6 9 11 9 22 0 13 -10 18 -6 15 14 0 4 3 7 8 7 5 0 9 -11 9 -25z m37 5
c-3 -5 -11 -10 -16 -10 -6 0 -7 5 -4 10 3 6 11 10 16 10 6 0 7 -4 4 -10z
m-105 -40 c0 -5 -5 -10 -11 -10 -5 0 -7 5 -4 10 3 6 8 10 11 10 2 0 4 -4 4
-10z"/>
<path d="M5165 5406 c-38 -36 -46 -49 -41 -68 3 -13 6 -27 6 -31 0 -5 4 -6 9
-3 5 3 7 16 4 29 -5 20 -4 20 8 5 13 -16 16 -16 49 2 19 11 28 19 20 20 -9 0
-21 -5 -28 -12 -9 -9 -12 -9 -12 0 0 6 8 16 18 21 9 6 14 11 11 11 -4 0 -3 16
1 35 4 19 7 35 5 35 -1 0 -24 -20 -50 -44z m5 -26 c0 -5 -5 -10 -11 -10 -5 0
-7 5 -4 10 3 6 8 10 11 10 2 0 4 -4 4 -10z"/>
<path d="M5045 5372 c-48 -10 -46 -24 6 -48 28 -13 53 -24 55 -24 7 0 4 14 -6
30 -9 13 -11 13 -20 0 -8 -12 -10 -12 -10 5 0 17 -2 17 -10 5 -5 -8 -10 -10
-10 -4 0 5 5 15 12 22 15 15 9 20 -17 14z"/>
<path d="M4052 5303 c-6 -2 -10 -9 -6 -14 3 -5 -2 -9 -11 -9 -9 0 -13 5 -10
10 3 6 2 10 -3 10 -10 0 -24 -41 -17 -48 3 -3 12 1 22 9 14 12 16 12 11 -2 -5
-12 1 -15 26 -13 17 2 23 1 13 -2 -17 -5 -15 -8 9 -20 15 -8 32 -13 37 -11 18
6 15 36 -4 42 -10 4 -19 13 -19 20 0 11 6 12 31 3 16 -6 32 -8 35 -6 2 3 -12
10 -31 15 -28 9 -38 8 -49 -3 -20 -20 -29 -17 -23 6 3 11 4 20 4 19 -1 0 -8
-3 -15 -6z m68 -63 c0 -5 -4 -10 -10 -10 -5 0 -10 5 -10 10 0 6 5 10 10 10 6
0 10 -4 10 -10z"/>
<path d="M3962 5273 c2 -9 10 -19 18 -21 12 -4 13 -3 3 10 -7 8 -10 18 -6 21
3 4 1 7 -6 7 -7 0 -11 -8 -9 -17z"/>
<path d="M4547 5226 c-3 -8 -2 -18 3 -21 13 -8 20 9 11 24 -6 10 -10 9 -14 -3z"/>
<path d="M4613 5228 c3 -9 -2 -22 -10 -30 -15 -11 -16 -11 -10 5 4 10 3 16 -2
13 -5 -3 -11 -15 -14 -26 -4 -16 -2 -18 12 -10 30 16 41 34 29 50 -8 13 -9 12
-5 -2z"/>
<path d="M4044 5203 c3 -20 20 -27 42 -19 13 5 14 9 4 21 -17 21 -49 19 -46
-2z"/>
<path d="M4010 5171 c0 -5 6 -14 14 -20 10 -9 17 -7 27 6 8 9 9 14 2 10 -6 -4
-14 -3 -18 3 -8 12 -25 13 -25 1z"/>
<path d="M4610 5161 c0 -6 4 -13 10 -16 6 -3 7 1 4 9 -7 18 -14 21 -14 7z"/>
<path d="M7295 5252 c-11 -28 10 -33 138 -31 165 1 197 6 197 29 0 15 -15 17
-165 16 -128 -1 -166 -4 -170 -14z"/>
<path d="M4395 4560 c3 -5 8 -10 11 -10 2 0 4 5 4 10 0 6 -5 10 -11 10 -5 0
-7 -4 -4 -10z"/>
<path d="M4366 4419 c-11 -23 -13 -37 -5 -57 l10 -27 19 25 c23 31 30 66 17
79 -17 17 -24 13 -41 -20z"/>
<path d="M4086 4445 c-9 -25 -7 -55 4 -55 14 0 24 50 13 61 -7 7 -12 5 -17 -6z"/>
<path d="M4103 4303 c-7 -3 -13 -11 -13 -20 0 -23 44 -12 48 12 2 15 1 17 -6
6 -5 -7 -11 -9 -13 -4 -2 6 -10 8 -16 6z"/>
<path d="M4115 4130 c-3 -5 1 -10 10 -10 9 0 13 5 10 10 -3 6 -8 10 -10 10 -2
0 -7 -4 -10 -10z"/>
<path d="M4150 3900 c-9 -6 -10 -10 -3 -10 6 0 15 5 18 10 8 12 4 12 -15 0z"/>
<path d="M5239 2433 c-13 -16 -12 -17 4 -4 9 7 17 15 17 17 0 8 -8 3 -21 -13z"/>
<path d="M450 5610 c-9 -6 -10 -10 -3 -10 6 0 15 5 18 10 8 12 4 12 -15 0z"/>
<path d="M2528 4227 c-52 -32 -313 -160 -428 -210 -175 -76 -232 -105 -220
-112 6 -4 57 -4 113 0 112 8 221 42 372 117 107 54 92 41 -69 -57 -123 -74
-133 -83 -113 -92 17 -8 39 -3 105 25 45 19 91 32 102 29 10 -3 20 -2 22 2 6
14 61 51 68 46 4 -3 10 2 14 10 3 8 12 12 21 9 8 -3 15 -1 15 6 0 6 10 10 22
8 11 -2 23 3 26 11 3 9 0 11 -8 6 -9 -5 -11 -4 -6 4 6 9 11 9 22 0 8 -6 12
-14 9 -17 -9 -9 17 -32 36 -32 11 0 19 -5 19 -11 0 -5 5 -7 11 -3 7 4 7 9 2
13 -11 7 -35 71 -27 71 12 0 34 -30 34 -45 0 -9 4 -14 8 -11 5 3 33 -20 63
-51 30 -30 63 -59 74 -63 33 -13 125 -22 125 -13 0 4 -26 25 -58 45 -31 20
-73 54 -92 75 -19 20 -28 32 -19 25 9 -6 18 -9 21 -6 9 8 69 -25 108 -60 33
-29 34 -30 10 -2 l-25 28 53 -26 c28 -14 52 -22 52 -17 0 5 9 7 19 4 13 -3 23
2 31 16 16 31 -12 52 -181 141 -78 41 -178 94 -220 116 l-78 41 -33 -20z m97
-227 c3 -5 2 -10 -4 -10 -5 0 -13 5 -16 10 -3 6 -2 10 4 10 5 0 13 -4 16 -10z"/>
<path d="M2800 3990 c0 -5 5 -10 11 -10 5 0 7 5 4 10 -3 6 -8 10 -11 10 -2 0
-4 -4 -4 -10z"/>
<path d="M2687 3929 c7 -7 15 -10 18 -7 3 3 -2 9 -12 12 -14 6 -15 5 -6 -5z"/>
<path d="M3580 3864 c-69 -12 -150 -31 -180 -41 -52 -17 -56 -21 -106 -108
-29 -49 -51 -91 -50 -92 0 -1 20 -4 44 -8 28 -4 42 -2 42 5 0 6 -5 8 -12 4 -7
-4 -8 -3 -4 4 4 7 18 10 34 6 26 -6 26 -6 7 10 -19 16 -19 16 10 9 27 -6 29
-5 16 10 -19 24 -1 21 25 -4 13 -12 36 -22 51 -22 l28 0 -30 -13 c-16 -7 -23
-13 -15 -14 23 0 61 30 54 42 -4 6 -2 8 4 4 6 -3 13 -2 17 4 3 5 1 10 -5 10
-6 0 -8 5 -5 10 4 6 -15 10 -49 10 -30 0 -57 4 -60 8 -3 5 9 7 27 5 19 -2 26
0 17 4 -21 11 -24 33 -4 33 8 0 13 -4 10 -9 -6 -10 24 -25 32 -16 3 3 0 5 -7
5 -8 0 -7 5 4 16 15 15 17 15 30 -2 12 -16 11 -20 -3 -26 -15 -6 -15 -7 1 -7
10 -1 25 6 33 14 23 23 47 20 34 -4 -5 -11 -10 -23 -10 -26 0 -13 65 0 72 15
5 10 7 8 7 -10 1 -18 4 -21 13 -12 9 9 7 16 -7 32 -13 14 -21 17 -26 9 -4 -6
-12 -8 -18 -5 -6 4 -9 12 -6 17 10 15 53 10 63 -6 7 -14 11 -13 26 4 28 31 3
35 -87 17 -92 -19 -87 -19 -87 -1 0 8 8 15 18 16 14 0 14 2 -3 9 -16 7 -17 9
-3 9 9 1 23 4 31 7 8 3 22 -2 30 -11 15 -14 17 -14 27 6 8 14 17 18 28 14 9
-4 24 -8 32 -9 8 -1 23 -6 34 -11 11 -5 26 -4 37 3 23 15 32 15 24 2 -3 -5 4
-11 17 -11 17 -1 18 -3 5 -6 -9 -2 -15 -9 -11 -14 3 -5 9 -7 13 -4 12 7 44
-32 36 -45 -3 -6 -24 -9 -45 -8 -21 2 -36 6 -33 11 2 4 -3 7 -12 7 -13 0 -14
-4 -5 -20 9 -17 17 -20 48 -14 60 11 79 37 47 64 -8 7 -12 17 -9 22 4 6 10 5
15 -3 6 -9 9 -10 9 -2 0 6 3 19 6 27 5 14 2 15 -21 6 -34 -13 -55 -13 -35 0
11 7 7 10 -17 10 -18 0 -33 4 -33 10 0 5 15 7 33 5 l32 -4 -35 30 c-56 47 -57
47 -190 23z m-130 -188 c0 -2 -8 -10 -17 -17 -16 -13 -17 -12 -4 4 13 16 21
21 21 13z"/>
<path d="M2935 3768 c-71 -33 -186 -87 -255 -120 -69 -34 -161 -76 -205 -95
l-80 -34 55 5 c30 3 112 9 183 12 87 5 131 11 138 21 6 7 15 13 20 13 4 0 20
5 36 12 15 6 42 12 58 12 17 1 41 9 55 18 36 24 167 77 174 70 3 -3 6 -1 6 5
0 6 8 9 18 7 10 -3 30 8 51 30 l33 35 -71 35 c-39 20 -74 36 -78 35 -5 0 -66
-28 -138 -61z"/>
<path d="M2025 3763 c19 -19 230 -180 254 -192 l23 -13 -26 -13 c-50 -26 -144
-106 -208 -178 -81 -91 -85 -97 -58 -97 12 0 18 5 15 10 -3 6 1 10 9 10 9 0
16 5 16 10 0 6 8 10 18 10 14 0 15 -2 2 -10 -8 -5 -10 -10 -5 -10 16 0 37 16
33 26 -1 5 10 9 25 9 16 1 32 7 36 14 7 11 10 11 14 0 4 -11 6 -11 6 -1 1 7
-9 16 -21 21 -21 8 -20 10 20 35 27 17 42 33 42 47 0 12 5 19 13 16 21 -7 46
12 66 52 26 50 20 58 -116 153 -116 81 -174 118 -158 101z"/>
<path d="M3725 3749 c-11 -17 1 -21 15 -4 8 9 8 15 2 15 -6 0 -14 -5 -17 -11z"/>
<path d="M3754 3714 c24 -17 59 -19 54 -1 -3 6 -20 13 -39 14 -32 1 -33 0 -15
-13z"/>
<path d="M4057 3713 c-4 -3 -7 -20 -7 -37 0 -25 -2 -28 -11 -16 -9 13 -10 13
-6 0 2 -8 9 -15 15 -15 5 0 14 -3 18 -7 14 -15 26 -8 14 7 -9 11 -9 15 -1 15
6 0 15 -8 19 -18 7 -17 8 -17 25 0 16 17 16 18 -4 18 -19 0 -19 1 -4 16 12 12
13 19 4 30 -12 15 -51 19 -62 7z"/>
<path d="M4233 3714 c-18 -8 -16 -29 2 -44 13 -11 14 -10 9 5 -5 13 -4 16 4
11 7 -4 12 -14 12 -22 0 -8 5 -14 11 -14 5 0 7 5 4 10 -3 6 -2 10 4 10 5 0 11
-5 13 -11 2 -7 15 -8 38 -2 l34 9 -31 22 c-33 23 -79 35 -100 26z m52 -14 c3
-5 1 -10 -4 -10 -6 0 -11 5 -11 10 0 6 2 10 4 10 3 0 8 -4 11 -10z"/>
<path d="M4148 3693 c7 -3 16 -2 19 1 4 3 -2 6 -13 5 -11 0 -14 -3 -6 -6z"/>
<path d="M3665 3670 c-3 -5 -1 -10 4 -10 6 0 11 5 11 10 0 6 -2 10 -4 10 -3 0
-8 -4 -11 -10z"/>
<path d="M3520 3641 c-15 -28 4 -35 31 -11 19 16 20 19 5 13 -13 -4 -17 -3
-12 5 4 7 3 12 -3 12 -6 0 -15 -9 -21 -19z"/>
<path d="M4213 3653 c4 -3 2 -12 -3 -18 -8 -9 -4 -11 15 -7 28 5 33 17 9 26
-20 8 -29 8 -21 -1z"/>
<path d="M3740 3624 c-41 -7 -106 -24 -144 -37 l-69 -23 -44 -124 c-24 -68
-41 -130 -38 -138 8 -21 34 -10 53 21 14 23 15 31 4 48 -16 25 -6 63 14 55 8
-3 20 -8 27 -11 7 -3 21 1 32 10 20 14 20 15 -2 21 -28 8 -29 16 -3 39 12 11
28 15 42 12 14 -4 29 0 41 10 11 10 21 13 25 8 10 -14 52 -18 52 -6 0 6 -7 8
-15 5 -8 -4 -15 -1 -15 5 0 6 8 11 18 11 10 0 23 5 29 11 6 6 23 9 36 5 20 -5
24 -11 21 -28 l-5 -23 12 23 c7 12 19 22 27 22 11 0 12 3 3 14 -9 11 -9 14 1
13 26 -3 109 15 134 28 l27 13 -54 16 c-62 19 -107 19 -209 0z"/>
<path d="M3090 3585 c-109 -39 -190 -76 -190 -85 0 -11 203 -53 266 -55 54 -1
61 0 57 16 -3 10 -12 20 -22 23 -9 3 11 3 44 0 81 -7 95 -12 104 -37 8 -21 9
-20 30 13 32 54 28 66 -31 85 -29 10 -74 30 -99 46 -25 16 -50 29 -55 29 -5
-1 -52 -16 -104 -35z"/>
<path d="M2117 3579 c-100 -40 -198 -122 -222 -184 -8 -23 -34 -248 -29 -254
11 -13 16 9 43 192 6 44 19 83 35 108 30 45 108 100 192 134 33 14 52 24 44
24 -8 0 -37 -9 -63 -20z"/>
<path d="M4410 3584 c0 -10 33 -33 48 -34 6 0 12 7 12 16 0 8 -4 12 -10 9 -5
-3 -19 -1 -30 5 -11 6 -20 8 -20 4z"/>
<path d="M3915 3565 c-27 -7 -42 -14 -32 -14 9 -1 17 -7 17 -15 0 -9 9 -14 20
-13 22 1 27 22 8 30 -8 3 -6 6 5 6 10 1 20 -5 23 -13 4 -11 14 -12 46 -4 22 5
48 6 57 4 18 -6 48 9 34 17 -21 13 -132 15 -178 2z m78 -12 c-7 -2 -19 -2 -25
0 -7 3 -2 5 12 5 14 0 19 -2 13 -5z"/>
<path d="M4078 3534 c-4 -3 -27 -6 -52 -6 -26 0 -50 -5 -56 -13 -12 -15 -11
-15 61 -17 26 -1 36 -5 32 -15 -3 -7 2 -13 11 -13 9 0 16 -7 16 -15 0 -8 5
-15 11 -15 5 0 8 4 5 8 -2 4 -1 14 3 21 6 9 10 4 13 -16 3 -22 0 -29 -14 -31
-10 -1 -26 -3 -37 -4 -10 -1 -18 -9 -16 -18 1 -8 -2 -20 -7 -27 -13 -16 -2
-33 20 -32 16 0 16 1 0 7 -20 8 -9 35 13 31 8 -2 24 3 37 10 19 10 22 18 17
44 -13 62 -16 70 -28 58 -20 -20 -31 -12 -12 9 20 23 15 24 -34 10 -45 -13
-30 2 17 16 20 7 30 12 21 13 -9 1 -18 -2 -21 -5z m-61 -20 c-3 -3 -12 -4 -19
-1 -8 3 -5 6 6 6 11 1 17 -2 13 -5z m83 -114 c0 -5 -10 -10 -22 -9 -22 0 -22
1 -3 9 11 5 21 9 23 9 1 1 2 -3 2 -9z"/>
<path d="M4227 3528 c-14 -11 -16 -23 -11 -75 7 -69 7 -68 79 -54 34 7 24 17
-12 12 -7 -1 -13 2 -13 8 0 5 6 11 13 14 6 2 9 7 6 11 -3 4 -18 2 -33 -3 -17
-7 -26 -7 -26 -1 0 6 8 10 18 10 14 1 13 4 -8 22 -17 15 -19 19 -7 15 20 -8
57 8 57 23 0 6 -7 10 -16 10 -9 0 -12 -5 -8 -12 5 -10 4 -10 -6 -1 -7 6 -20 9
-29 7 -9 -3 -5 2 9 10 14 8 20 15 14 16 -5 0 -18 -6 -27 -12z m23 -113 c-7 -9
-15 -13 -19 -10 -3 3 1 10 9 15 21 14 24 12 10 -5z"/>
<path d="M3843 3523 c9 -2 23 -2 30 0 6 3 -1 5 -18 5 -16 0 -22 -2 -12 -5z"/>
<path d="M3755 3510 c-3 -5 -1 -10 4 -10 6 0 11 5 11 10 0 6 -2 10 -4 10 -3 0
-8 -4 -11 -10z"/>
<path d="M3826 3494 c-3 -9 -13 -14 -21 -10 -8 3 -17 1 -20 -4 -11 -18 32 -10
55 10 17 15 19 20 8 20 -9 0 -19 -7 -22 -16z"/>
<path d="M3884 3499 c-8 -14 5 -29 27 -29 10 0 19 6 19 14 0 16 -37 28 -46 15z"/>
<path d="M4530 3497 c0 -21 15 -36 28 -29 8 6 6 13 -8 25 -13 11 -20 13 -20 4z"/>
<path d="M2424 3481 c6 -9 85 -33 100 -31 5 1 12 -3 15 -8 3 -5 22 -17 41 -27
19 -10 61 -37 92 -61 37 -28 70 -44 90 -46 18 -1 37 -7 41 -13 6 -7 10 -6 14
3 2 6 9 12 14 12 6 0 8 -4 5 -9 -4 -5 4 -7 16 -3 16 4 19 2 13 -8 -6 -10 -4
-12 8 -7 20 8 22 -3 5 -23 -7 -8 -4 -7 8 3 16 13 27 15 52 8 23 -7 34 -6 43 5
6 8 19 14 27 14 13 0 13 -2 -2 -13 -10 -8 -16 -22 -14 -33 3 -15 11 -18 37
-16 19 1 41 -4 50 -11 9 -7 27 -14 41 -15 l25 -1 -27 15 c-37 20 -35 24 10 20
64 -6 67 -6 81 -15 14 -9 14 -11 -26 -55 -7 -8 -10 -16 -7 -19 3 -3 0 -16 -7
-29 -16 -30 -14 -29 75 82 l76 95 -31 13 c-69 29 -362 112 -479 136 -198 40
-400 60 -386 37z"/>
<path d="M3596 3475 c4 -9 11 -14 16 -13 15 5 11 23 -6 26 -11 2 -14 -2 -10
-13z"/>
<path d="M3645 3480 c-3 -5 -1 -10 4 -10 6 0 11 5 11 10 0 6 -2 10 -4 10 -3 0
-8 -4 -11 -10z"/>
<path d="M3693 3483 c-19 -7 -16 -43 3 -43 8 0 25 5 36 11 21 11 21 12 3 25
-20 15 -23 15 -42 7z"/>
<path d="M3956 3473 c-3 -4 -6 -12 -6 -20 0 -19 33 -16 51 6 15 17 15 18 -11
19 -16 0 -31 -2 -34 -5z"/>
<path d="M4310 3465 c46 -18 64 -17 25 0 -16 8 -37 14 -45 14 -8 0 1 -7 20
-14z"/>
<path d="M4031 3463 c5 -26 -4 -33 -41 -33 -28 0 -40 -4 -40 -14 0 -9 8 -13
23 -9 21 4 21 4 4 -10 -18 -15 -18 -16 5 -28 29 -16 48 -20 48 -9 0 5 -10 12
-22 16 l-23 7 25 10 c17 6 21 11 11 14 -8 4 1 12 25 24 34 15 37 19 19 25 -11
4 -23 9 -28 11 -4 3 -7 1 -6 -4z"/>
<path d="M4370 3451 c0 -12 39 -21 45 -11 3 4 -2 11 -11 14 -22 8 -34 7 -34
-3z"/>
<path d="M3603 3430 c-3 -11 -9 -17 -14 -14 -5 3 -9 0 -9 -5 0 -6 -7 -11 -16
-11 -11 0 -14 -5 -9 -17 15 -38 24 -76 20 -84 -9 -14 16 -21 51 -14 30 5 33 9
24 21 -7 8 -19 14 -26 14 -8 0 -13 3 -13 8 3 20 -3 32 -17 32 -8 0 -12 5 -9
10 3 6 0 10 -7 10 -7 0 2 12 20 26 32 26 41 44 21 44 -6 0 -13 -9 -16 -20z"/>
<path d="M3780 3439 c-42 -17 -52 -44 -18 -52 29 -8 78 19 78 43 0 22 -20 25
-60 9z"/>
<path d="M3855 3420 c0 -21 3 -26 12 -18 7 5 16 7 22 4 9 -6 46 23 38 30 -1 2
-19 5 -37 8 -33 4 -35 2 -35 -24z"/>
<path d="M2260 3408 c-15 -24 -16 -34 -7 -40 8 -5 5 -8 -8 -9 -15 0 -16 -2 -5
-7 23 -11 23 -31 0 -25 -11 3 -20 0 -20 -6 0 -6 6 -11 13 -11 8 0 7 -4 -3 -11
-12 -8 -9 -10 12 -6 15 2 25 0 22 -4 -3 -5 -1 -9 5 -9 5 0 12 -8 15 -17 2 -10
4 -4 3 12 -1 17 -5 36 -11 43 -6 9 -5 11 7 7 8 -4 18 -17 21 -31 9 -35 33 -31
30 6 -1 16 2 27 7 24 5 -3 7 -9 4 -14 -7 -11 22 -33 35 -25 5 3 17 -1 26 -9 8
-9 25 -16 37 -16 16 0 18 3 9 12 -6 6 -18 13 -25 14 -8 1 -33 14 -56 28 -23
15 -46 24 -52 21 -5 -4 -8 -2 -7 4 2 6 -10 21 -26 34 l-30 24 34 -5 c63 -9
220 -119 220 -153 0 -12 17 -30 45 -48 35 -22 42 -31 32 -41 -10 -10 -8 -12 6
-7 9 4 17 2 17 -4 0 -14 26 -39 41 -39 8 0 8 -4 -2 -16 -10 -13 -10 -17 1 -24
8 -5 17 -7 21 -4 14 8 21 -17 9 -30 -24 -29 -30 -77 -14 -108 9 -16 18 -27 21
-24 3 3 1 12 -5 19 -7 8 -9 17 -5 20 3 4 1 7 -5 7 -7 0 -12 5 -12 10 0 6 9 5
23 -2 12 -7 23 -14 25 -14 2 -1 0 -14 -4 -28 -6 -26 -8 -27 -65 -20 l-59 7 0
-29 c0 -16 4 -34 8 -40 18 -29 162 -27 162 2 0 8 -4 14 -9 14 -4 0 -6 11 -4
25 9 42 -17 158 -48 223 -18 37 -59 93 -95 131 -79 84 -209 185 -225 175 -8
-4 -9 -3 -5 5 5 7 -5 17 -28 26 -49 21 -54 19 -76 -17z m115 -116 c-3 -3 -11
0 -18 7 -9 10 -8 11 6 5 10 -3 15 -9 12 -12z m348 -428 c-7 -3 -9 -12 -6 -19
4 -11 -5 -14 -40 -12 -36 1 -43 4 -35 15 6 7 18 10 27 7 9 -2 23 0 31 5 8 5
20 9 25 9 6 0 5 -3 -2 -5z"/>
<path d="M3637 3413 c-13 -12 -7 -41 9 -47 9 -4 19 -4 22 -1 3 2 -3 7 -12 11
-16 6 -16 8 0 25 14 16 15 19 2 19 -8 0 -18 -3 -21 -7z"/>
<path d="M4650 3388 c-47 -13 -53 -21 -45 -56 5 -23 19 -38 51 -57 24 -14 50
-23 57 -19 6 4 9 4 5 -1 -13 -14 32 -39 45 -26 17 17 31 13 17 -5 -11 -12 -11
-18 2 -30 14 -14 16 -13 22 11 4 14 4 31 0 37 -5 7 -2 8 5 3 8 -4 10 -17 7
-31 -8 -29 -2 -29 66 -5 29 11 82 27 118 36 103 27 104 30 5 60 -50 15 -136
42 -192 61 -111 37 -111 37 -163 22z m-3 -49 c-11 -7 -23 -7 -28 -2 -5 5 3 9
19 11 24 1 25 0 9 -9z m166 -24 c-3 -9 -8 -14 -10 -11 -3 3 -2 9 2 15 9 16 15
13 8 -4z m-143 -20 c0 -9 -6 -12 -16 -8 -13 5 -13 7 -2 14 17 11 18 11 18 -6z
m117 -1 c-3 -3 -12 -4 -19 -1 -8 3 -5 6 6 6 11 1 17 -2 13 -5z m33 -25 c0 -5
-4 -9 -8 -9 -5 0 -9 7 -9 15 0 8 4 12 9 9 4 -3 8 -9 8 -15z m97 -1 c-3 -8 -6
-5 -6 6 -1 11 2 17 5 13 3 -3 4 -12 1 -19z m-167 -12 c0 -3 -4 -8 -10 -11 -5
-3 -10 -1 -10 4 0 6 5 11 10 11 6 0 10 -2 10 -4z"/>
<path d="M5445 3374 c-200 -61 -306 -97 -310 -104 -3 -4 28 -16 68 -25 39 -10
105 -28 145 -41 l74 -24 96 56 c114 65 120 70 124 108 2 24 -2 30 -22 36 -70
19 -97 18 -175 -6z"/>
<path d="M4390 3375 c-148 -24 -213 -42 -232 -67 -36 -45 -67 -104 -73 -140
-6 -33 -4 -37 21 -50 32 -15 57 -83 75 -204 13 -83 24 -107 39 -84 5 8 10 26
11 40 1 17 3 19 6 8 5 -20 23 -25 23 -7 0 8 5 8 15 -1 12 -10 24 -9 63 5 80
30 79 34 -28 89 -102 53 -146 86 -129 97 11 7 12 12 1 29 -7 11 -8 20 -3 20 6
0 13 -5 16 -10 4 -6 11 -7 17 -4 7 5 3 10 -10 15 -12 5 -22 13 -22 19 0 6 6 8
13 4 9 -6 9 -5 0 8 -16 18 -5 32 13 17 10 -8 12 -5 11 16 -1 14 -9 30 -17 35
-13 8 -12 10 3 10 10 0 20 -7 23 -15 4 -8 16 -16 28 -16 16 -1 17 -2 4 -6 -10
-2 -18 -9 -18 -14 0 -10 33 -13 43 -3 11 12 -5 34 -27 35 -19 1 -18 2 4 8 l25
7 -24 6 c-12 4 -20 11 -17 17 4 6 21 3 46 -7 30 -13 35 -19 22 -24 -14 -5 -13
-7 4 -7 35 -1 38 27 4 34 -17 4 -32 11 -35 16 -7 10 19 7 47 -5 18 -8 41 1 34
13 -10 15 11 29 54 35 31 5 40 4 31 -3 -12 -8 -13 -14 -3 -35 14 -31 14 -30
-29 -10 -19 8 -24 13 -12 11 14 -3 20 -1 17 8 -3 7 -15 10 -28 8 -18 -4 -22
-10 -18 -25 2 -11 11 -22 18 -25 23 -9 16 -21 -13 -26 -23 -3 -22 -4 9 -6 20
0 43 -4 52 -7 11 -4 16 -1 16 11 0 9 -4 13 -10 10 -5 -3 -10 -1 -10 4 0 11 10
14 45 12 20 -1 20 -1 0 8 -18 7 -17 8 8 14 37 10 49 38 41 97 -8 58 -3 57
-144 35z m115 -105 c0 -7 -7 -15 -15 -17 -13 -4 -13 -3 0 6 12 9 10 11 -10 11
-20 0 -22 2 -10 10 19 12 35 7 35 -10z"/>
<path d="M5695 3333 l-7 -58 -85 -50 c-47 -27 -92 -59 -99 -70 -7 -11 -14 -54
-16 -95 l-3 -75 28 -3 c15 -2 27 1 27 5 0 12 46 11 57 -1 5 -6 2 -6 -7 -1 -9
5 -12 5 -7 -1 5 -5 12 -9 15 -10 4 0 21 -6 37 -13 17 -7 60 -20 97 -29 l67
-16 50 32 c28 17 72 40 98 52 34 15 44 23 34 29 -9 6 -10 11 -2 15 6 4 11 1
11 -6 1 -7 12 1 25 17 14 17 25 26 25 20 -1 -24 -40 -57 -114 -97 -44 -24 -81
-48 -83 -55 -3 -7 26 -27 64 -46 113 -57 108 -58 121 20 24 143 68 234 107
220 33 -13 33 69 0 114 -14 19 -31 46 -37 61 -18 40 -60 53 -257 83 -147 22
-138 24 -146 -42z m190 -83 c-3 -5 -12 -10 -18 -10 -7 0 -6 4 3 10 19 12 23
12 15 0z m-205 -40 c0 -5 -2 -10 -4 -10 -3 0 -8 5 -11 10 -3 6 -1 10 4 10 6 0
11 -4 11 -10z m30 -24 c0 -8 6 -16 13 -19 6 -2 -1 -2 -17 1 -27 4 -28 2 -24
-27 4 -24 2 -28 -9 -20 -8 8 -17 8 -25 2 -7 -5 -24 -6 -38 -2 l-25 7 24 1 c24
1 24 1 5 22 -19 21 -19 21 10 8 26 -12 30 -11 48 14 22 30 38 35 38 13z m31
-87 c-15 -20 -17 -29 -9 -29 7 -1 -4 -7 -24 -14 -21 -7 -49 -11 -63 -9 -14 3
-32 0 -40 -7 -11 -9 -15 -9 -15 -1 0 6 8 15 18 18 9 4 20 11 24 17 5 8 8 7 8
-1 0 -30 109 52 111 84 1 12 3 9 6 -6 3 -14 -4 -35 -16 -52z m93 49 c9 -12 16
-19 16 -14 0 5 9 1 20 -9 11 -10 17 -22 13 -28 -3 -5 -12 1 -19 14 -7 13 -13
20 -14 16 0 -5 -10 -1 -22 7 -12 9 -32 16 -43 17 -20 0 -20 0 0 9 30 13 32 12
49 -12z m113 -4 c-3 -3 -12 -4 -19 -1 -8 3 -5 6 6 6 11 1 17 -2 13 -5z m-50
-86 c-3 -8 -6 -5 -6 6 -1 11 2 17 5 13 3 -3 4 -12 1 -19z m-112 -8 c-3 -5 -13
-10 -21 -10 -10 0 -12 -5 -8 -12 5 -9 2 -9 -9 1 -17 13 -24 26 -9 18 4 -3 16
-1 27 4 27 10 27 10 20 -1z m-205 -14 c0 -11 -19 -15 -25 -6 -3 5 1 10 9 10 9
0 16 -2 16 -4z m106 -31 c16 -14 21 -25 13 -24 -25 1 -44 14 -47 32 -4 23 2
22 34 -8z m-49 -11 c-3 -3 -12 -4 -19 -1 -8 3 -5 6 6 6 11 1 17 -2 13 -5z
m113 -2 c0 -5 -7 -9 -15 -9 -8 0 -15 4 -15 9 0 4 7 8 15 8 8 0 15 -4 15 -8z
m35 -30 c-8 -8 -25 10 -25 26 0 13 2 13 14 -4 8 -10 13 -21 11 -22z"/>
<path d="M5660 3060 c0 -5 4 -10 9 -10 6 0 13 5 16 10 3 6 -1 10 -9 10 -9 0
-16 -4 -16 -10z"/>
<path d="M3705 3364 c-26 -19 -1 -27 50 -16 l38 8 -35 10 c-27 9 -39 8 -53 -2z"/>
<path d="M3880 3368 c0 -5 10 -13 23 -18 l22 -9 -22 0 c-13 -1 -22 -6 -20 -13
1 -8 -20 -15 -57 -20 -70 -9 -85 -18 -30 -18 21 -1 64 -3 95 -6 36 -4 59 -2
63 5 4 6 2 11 -5 11 -8 0 -8 4 1 15 10 12 10 15 -3 15 -10 0 -13 6 -10 20 3
11 1 21 -3 21 -38 6 -54 5 -54 -3z"/>
<path d="M3988 3333 c7 -3 16 -2 19 1 4 3 -2 6 -13 5 -11 0 -14 -3 -6 -6z"/>
<path d="M1510 3310 c8 -5 20 -10 25 -10 6 0 3 5 -5 10 -8 5 -19 10 -25 10 -5
0 -3 -5 5 -10z"/>
<path d="M4010 3310 c-25 -4 -38 -8 -30 -10 26 -4 65 1 75 11 5 5 7 8 5 7 -3
0 -25 -4 -50 -8z"/>
<path d="M4555 3250 c3 -5 -3 -10 -14 -10 -33 0 -34 -18 -1 -25 17 -4 28 -11
24 -16 -3 -5 -1 -9 5 -9 5 0 15 8 20 18 9 15 10 15 11 0 0 -9 12 -21 28 -26
26 -10 25 -10 -16 -11 -24 -1 -41 -5 -37 -10 3 -6 -7 -9 -21 -8 -16 1 -29 -4
-32 -13 -5 -13 -3 -13 14 0 10 8 16 10 12 6 -12 -14 11 -34 31 -29 13 3 17 11
14 26 -3 14 -2 18 4 10 4 -6 28 -11 53 -10 58 2 55 -16 -4 -25 -56 -8 -73 -17
-55 -30 11 -7 9 -8 -5 -6 -28 4 -31 -20 -4 -32 21 -10 22 -10 1 -6 -13 2 -24
-2 -27 -11 -4 -10 -1 -13 12 -10 48 14 92 17 92 7 0 -5 5 -10 11 -10 5 0 7 6
3 13 -5 9 -3 9 7 -1 12 -11 12 -14 -1 -22 -19 -12 -40 -13 -40 -1 0 4 -11 6
-25 3 -18 -3 -25 -11 -25 -27 0 -21 2 -22 63 -13 34 6 66 13 70 17 4 4 3 20
-2 34 -6 15 -8 34 -5 42 4 8 3 31 0 50 -6 28 -20 45 -80 90 -71 53 -94 66 -81
45z m100 -179 c17 -7 16 -9 -11 -13 -24 -3 -31 -1 -27 9 6 15 9 15 38 4z"/>
<path d="M1960 3229 c-7 -11 -9 -23 -6 -27 3 -3 6 0 6 7 0 8 6 11 16 7 9 -3
12 -2 9 5 -5 7 6 8 32 5 29 -4 32 -4 13 3 -24 9 -24 9 7 10 17 1 34 -3 38 -9
3 -5 13 -6 21 -3 28 11 -7 23 -68 23 -48 0 -59 -3 -68 -21z"/>
<path d="M2199 3233 c-10 -11 -10 -14 -1 -9 7 4 12 2 12 -8 0 -16 18 -31 26
-23 3 3 0 16 -7 29 -11 21 -11 22 4 9 10 -7 17 -21 17 -30 0 -13 2 -14 9 -2
10 16 3 43 -9 36 -5 -3 -11 -1 -15 5 -9 15 -21 12 -36 -7z"/>
<path d="M2317 3244 c-14 -14 -8 -46 7 -41 10 4 13 1 9 -9 -3 -9 1 -14 12 -14
9 0 13 5 10 10 -3 6 -1 10 5 10 6 0 8 -11 6 -25 -3 -18 2 -30 22 -44 22 -17
24 -20 9 -21 -22 0 -17 -21 19 -90 13 -25 24 -49 24 -55 0 -5 13 -19 28 -29
15 -11 21 -13 15 -6 -28 30 -11 25 23 -6 19 -19 42 -34 50 -34 17 0 17 1 3 37
-12 31 -11 39 2 36 5 -2 4 7 -1 20 -5 12 -17 51 -26 87 -22 91 -38 116 -79
130 -19 6 -41 10 -48 7 -6 -2 -16 6 -22 17 -10 21 -54 33 -68 20z m158 -63 c3
-5 0 -13 -5 -16 -8 -5 -6 -13 5 -25 9 -10 12 -21 7 -24 -5 -3 -15 1 -22 9 -7
8 -9 15 -5 15 4 0 2 6 -4 13 -6 8 -7 18 -3 22 4 5 -1 5 -11 2 -11 -4 -16 -3
-12 3 8 13 42 13 50 1z m-75 -23 c0 -19 -2 -20 -10 -8 -13 19 -13 30 0 30 6 0
10 -10 10 -22z"/>
<path d="M3401 3236 c-17 -20 -80 -173 -87 -211 l-6 -36 53 22 c101 40 124 46
214 59 50 7 98 20 107 28 10 8 24 12 31 9 8 -3 19 -1 23 3 5 5 25 10 44 11 19
2 41 7 49 13 11 8 13 8 7 -1 -5 -9 -1 -13 11 -13 15 0 16 -2 3 -11 -11 -7 3
-8 45 -3 33 3 63 9 67 13 10 10 28 83 22 93 -3 4 -118 8 -255 8 -193 0 -257 3
-284 14 -26 11 -36 12 -44 2z"/>
<path d="M1730 3205 c36 -19 70 -34 75 -34 6 0 -19 15 -55 34 -36 19 -69 34
-75 34 -5 0 19 -15 55 -34z"/>
<path d="M5005 3201 c-55 -20 -110 -42 -121 -49 -23 -12 -51 -63 -60 -111 -6
-29 -4 -31 79 -72 76 -38 87 -47 107 -88 12 -25 37 -74 56 -108 l35 -63 27 33
c78 91 117 177 82 177 -5 0 -10 9 -10 20 0 11 7 20 16 20 9 0 12 -5 8 -12 -4
-7 -3 -8 5 -4 6 4 18 3 25 -3 10 -8 18 -5 32 11 16 20 17 21 1 9 -15 -12 -20
-12 -30 -1 -9 10 -9 11 1 6 11 -7 17 5 13 27 -1 5 3 5 9 2 6 -4 22 5 35 19 13
14 32 26 42 26 14 0 11 -7 -14 -31 -43 -40 -42 -47 2 -12 19 15 35 36 35 46 0
24 -33 88 -56 108 -15 13 -204 91 -216 88 -2 0 -48 -17 -103 -38z m82 -97 c-3
-3 -12 -4 -19 -1 -8 3 -5 6 6 6 11 1 17 -2 13 -5z m66 -44 c21 -1 21 -1 -3
-15 -20 -12 -22 -14 -7 -15 11 0 30 -9 44 -20 14 -11 29 -17 34 -14 5 3 9 1 9
-5 0 -5 -4 -13 -10 -16 -5 -3 -10 -2 -10 4 0 15 -40 4 -57 -16 -14 -17 -14
-17 -8 2 12 36 10 40 -17 43 -32 4 -36 -12 -11 -40 9 -10 11 -18 6 -18 -6 0
-13 6 -16 14 -7 19 -56 29 -72 16 -8 -6 -12 -20 -10 -31 2 -11 0 -17 -6 -14
-5 4 -7 10 -4 15 3 4 -2 13 -10 20 -8 7 -12 17 -8 23 3 6 1 7 -6 3 -6 -4 -8
-12 -5 -18 4 -6 1 -9 -6 -6 -7 2 -14 12 -16 21 -1 12 5 17 22 17 18 0 24 -5
24 -22 0 -21 0 -21 21 -2 l21 19 -25 10 -25 10 25 12 c22 11 23 10 11 -4 -11
-14 -10 -16 10 -11 15 4 20 2 15 -5 -3 -7 6 -1 20 12 15 13 24 29 20 34 -4 6
0 8 11 4 10 -4 27 -7 39 -7z m54 -6 c-3 -3 -12 -4 -19 -1 -8 3 -5 6 6 6 11 1
17 -2 13 -5z m83 2 c0 -2 -7 -9 -15 -16 -12 -10 -15 -10 -15 4 0 9 7 16 15 16
8 0 15 -2 15 -4z m-290 -100 c0 -9 -30 -14 -35 -6 -4 6 3 10 14 10 12 0 21 -2
21 -4z m80 -31 c0 -8 -4 -15 -8 -15 -5 0 -9 7 -9 15 0 8 4 15 9 15 4 0 8 -7 8
-15z"/>
<path d="M5096 3032 c-3 -5 1 -9 9 -9 8 0 12 4 9 9 -3 4 -7 8 -9 8 -2 0 -6 -4
-9 -8z"/>
<path d="M1941 3144 c-1 -39 0 -40 51 -62 28 -12 53 -20 55 -19 2 2 -19 18
-46 36 -36 22 -51 39 -54 59 -3 20 -4 16 -6 -14z"/>
<path d="M2207 3171 c-17 -6 -17 -8 2 -25 24 -22 38 -15 25 13 -6 13 -15 16
-27 12z"/>
<path d="M4320 3174 c-19 -5 -45 -44 -30 -44 5 0 10 4 10 9 0 5 14 8 32 7 25
-1 33 4 36 18 4 18 3 19 -13 3 -9 -9 -21 -17 -28 -17 -6 0 -2 7 9 15 19 14 14
17 -16 9z"/>
<path d="M4383 3165 c0 -8 9 -15 19 -15 22 0 24 16 2 24 -21 8 -21 8 -21 -9z"/>
<path d="M1820 3166 c0 -2 7 -7 16 -10 8 -3 12 -2 9 4 -6 10 -25 14 -25 6z"/>
<path d="M2285 3140 c-19 -36 -19 -40 1 -40 35 0 59 52 29 64 -10 3 -20 -5
-30 -24z"/>
<path d="M4442 3135 c-13 -16 -26 -23 -36 -19 -24 9 -66 -4 -66 -21 0 -9 11
-21 25 -27 17 -7 25 -19 25 -35 0 -13 -4 -21 -10 -18 -6 3 -7 -1 -4 -9 12 -33
64 -11 64 26 0 11 -7 18 -20 18 -22 0 -26 10 -9 27 18 18 49 3 49 -22 0 -38
10 -53 31 -48 24 7 25 23 2 24 -14 0 -13 3 5 11 12 6 22 15 22 20 0 4 5 8 11
8 5 0 7 -4 4 -10 -3 -5 1 -10 9 -10 10 0 13 6 10 15 -4 8 -14 15 -24 15 -37 0
-50 10 -38 30 9 14 9 22 -1 34 -18 22 -26 20 -49 -9z"/>
<path d="M2070 3100 c-9 -6 -10 -10 -3 -10 6 0 15 5 18 10 8 12 4 12 -15 0z"/>
<path d="M2560 3103 c0 -12 38 -48 45 -41 3 2 -6 15 -20 28 -14 13 -25 19 -25
13z"/>
<path d="M2195 3080 c3 -5 8 -10 11 -10 2 0 4 5 4 10 0 6 -5 10 -11 10 -5 0
-7 -4 -4 -10z"/>
<path d="M2223 3074 c0 -7 4 -11 8 -8 4 2 10 -2 12 -8 4 -8 6 -7 6 3 1 9 -5
19 -12 22 -8 3 -14 -1 -14 -9z"/>
<path d="M2310 3050 c24 -33 22 -32 45 -24 14 6 13 9 -6 30 -12 13 -31 24 -41
24 -18 0 -18 -1 2 -30z"/>
<path d="M4242 3055 c6 -14 22 -28 35 -31 27 -7 63 4 47 14 -6 4 -13 15 -17
25 -4 12 -17 17 -41 17 -34 0 -35 -1 -24 -25z"/>
<path d="M3805 3034 c-323 -45 -511 -93 -697 -181 -54 -25 -97 -47 -96 -48 2
-1 44 4 93 11 50 7 122 12 160 12 l70 0 -55 -10 c-30 -5 -98 -13 -150 -17
l-95 -8 155 -3 c85 -2 181 -4 213 -5 52 -2 58 0 54 16 -3 13 1 17 14 16 21 -1
25 -13 7 -19 -14 -5 -1 -28 15 -27 8 0 8 2 -1 6 -9 4 -7 10 8 23 15 13 17 19
8 23 -7 3 5 4 27 2 22 -2 48 -4 58 -4 10 -1 16 -5 13 -10 -3 -4 7 -6 22 -3 26
4 26 4 7 -12 -16 -13 -9 -12 33 4 29 11 50 15 46 9 -7 -11 14 -10 71 4 11 3
25 6 32 6 7 1 10 8 6 18 -5 11 -3 14 6 9 7 -5 35 -14 62 -21 41 -11 52 -11 63
0 7 8 16 11 20 8 3 -4 12 1 19 10 14 19 32 11 40 -18 2 -11 5 7 5 40 1 77 -28
189 -48 191 -8 1 -91 -9 -185 -22z"/>
<path d="M2193 3043 c9 -2 23 -2 30 0 6 3 -1 5 -18 5 -16 0 -22 -2 -12 -5z"/>
<path d="M2630 3038 c0 -12 18 -18 34 -12 24 9 19 19 -9 19 -14 0 -25 -3 -25
-7z"/>
<path d="M2570 3022 c0 -5 7 -15 15 -22 8 -7 15 -8 15 -2 0 5 -7 15 -15 22 -8
7 -15 8 -15 2z"/>
<path d="M2219 2998 c9 -24 163 -113 183 -105 7 2 -14 21 -47 42 -33 21 -73
49 -88 62 -37 30 -59 31 -48 1z"/>
<path d="M2401 2995 c0 -18 28 -61 29 -44 0 8 -7 24 -15 35 -8 10 -14 15 -14
9z"/>
<path d="M4330 2990 c20 -13 40 -13 40 0 0 6 -12 10 -27 10 -22 0 -25 -2 -13
-10z"/>
<path d="M4535 2983 c11 -3 26 -10 33 -15 9 -8 11 -7 6 6 -4 10 -16 16 -33 15
-20 -1 -22 -2 -6 -6z"/>
<path d="M4448 2968 c-38 -10 -52 -28 -23 -28 8 0 15 5 15 10 0 6 11 10 24 10
14 0 28 5 31 10 7 12 3 11 -47 -2z"/>
<path d="M2570 2943 c0 -4 5 -15 10 -23 8 -13 10 -13 10 2 0 9 -4 20 -10 23
-5 3 -10 3 -10 -2z"/>
<path d="M2430 2925 c0 -2 10 -10 23 -16 20 -11 21 -11 8 4 -13 16 -31 23 -31
12z"/>
<path d="M4745 2913 c-282 -81 -438 -143 -553 -222 -96 -65 -91 -73 15 -30 83
35 111 41 188 45 l90 4 -64 -15 c-83 -19 -226 -69 -301 -104 l-59 -28 92 -6
c99 -6 451 -70 480 -87 10 -6 22 -8 27 -5 4 3 10 0 12 -6 2 -6 25 -11 51 -11
26 0 45 -3 42 -8 -3 -4 12 -11 32 -15 21 -4 73 -18 116 -32 55 -17 83 -21 90
-14 11 11 -2 19 -44 26 -38 5 -65 15 -126 45 -50 25 -58 26 -82 14 -16 -8 -27
-10 -29 -4 -2 6 -13 10 -23 10 -12 0 -17 4 -13 11 4 8 0 8 -15 0 -17 -9 -26
-9 -43 4 -13 8 -28 15 -36 15 -7 0 -24 8 -38 17 -25 16 -25 17 -8 30 21 15 38
17 29 3 -3 -5 -1 -10 4 -10 6 0 11 5 11 10 0 6 5 10 11 10 5 0 8 -4 5 -9 -4
-5 3 -7 14 -4 21 6 28 23 8 23 -6 0 -9 2 -6 5 10 10 39 -8 34 -21 -4 -10 2
-14 19 -14 13 0 27 -5 31 -11 3 -6 15 -9 25 -6 10 3 21 2 24 -3 2 -4 16 -5 30
-2 18 3 25 0 25 -11 0 -9 5 -19 12 -23 8 -5 10 4 6 34 -4 26 -2 42 6 45 15 6
89 -80 81 -95 -3 -7 0 -5 7 4 11 15 17 12 60 -29 26 -26 45 -49 43 -53 -2 -4
2 -7 10 -7 8 0 0 16 -21 42 -19 23 -34 47 -34 54 0 7 -4 9 -10 6 -5 -3 -7 0
-5 8 3 7 -5 29 -19 49 -23 34 -19 42 14 24 8 -4 4 2 -9 13 -17 15 -19 21 -8
21 9 0 30 -17 47 -37 l32 -38 -15 35 c-37 89 -100 226 -109 236 -6 9 -29 5
-85 -12 -41 -14 -78 -23 -80 -20 -2 2 30 16 72 31 41 15 75 29 75 31 0 9 -73
104 -78 103 -4 -1 -29 -8 -57 -16z m182 -259 c-9 -9 -27 6 -27 22 0 13 2 13
16 -1 9 -9 14 -18 11 -21z m-120 -50 c-3 -3 -12 -4 -19 -1 -8 3 -5 6 6 6 11 1
17 -2 13 -5z m12 -20 c11 -3 11 -7 1 -19 -15 -18 -57 -19 -97 -4 l-28 11 30
12 c27 11 58 11 94 0z m111 -87 c0 -6 -9 -2 -20 8 -11 10 -20 23 -20 28 0 6 9
2 20 -8 11 -10 20 -23 20 -28z"/>
<path d="M2515 2866 c-18 -13 -9 -26 28 -39 13 -5 17 -1 17 17 0 29 -22 39
-45 22z"/>
<path d="M3933 2765 c0 -22 2 -30 4 -17 2 12 2 30 0 40 -3 9 -5 -1 -4 -23z"/>
<path d="M4042 2780 c0 -14 2 -19 5 -12 2 6 2 18 0 25 -3 6 -5 1 -5 -13z"/>
<path d="M2663 2762 c101 -46 97 -45 97 -9 l0 32 -75 0 -74 0 52 -23z"/>
<path d="M3913 2663 c21 -10 35 -22 31 -26 -5 -5 -1 -5 9 -1 25 9 21 21 -10
27 -16 3 -37 8 -48 12 -11 3 -3 -3 18 -12z"/>
<path d="M3107 2570 l-27 -17 152 -70 c84 -39 171 -74 192 -78 l39 -6 -31 30
c-17 17 -36 31 -42 31 -6 0 -41 18 -78 41 -37 23 -56 38 -42 34 14 -4 30 -11
35 -15 23 -17 63 -20 69 -4 3 8 2 12 -3 9 -5 -3 -12 -1 -16 5 -3 5 -17 10 -30
10 -13 0 -56 12 -95 26 -40 14 -74 23 -78 20 -3 -3 1 -6 8 -6 7 0 10 -3 7 -6
-4 -4 -12 -2 -19 3 -9 7 -21 5 -41 -7z"/>
<path d="M3442 2555 c-50 -22 -35 -36 40 -39 71 -2 79 7 29 37 -34 20 -28 20
-69 2z"/>
<path d="M4980 2531 c5 -11 15 -23 21 -27 6 -3 3 5 -6 20 -20 30 -30 35 -15 7z"/>
<path d="M4648 2493 c7 -3 16 -2 19 1 4 3 -2 6 -13 5 -11 0 -14 -3 -6 -6z"/>
<path d="M3443 2475 c-8 -23 4 -30 21 -12 8 8 12 17 9 21 -11 11 -23 7 -30 -9z"/>
<path d="M5063 2365 c0 -8 4 -12 9 -9 5 3 6 10 3 15 -9 13 -12 11 -12 -6z"/>
<path d="M4918 2213 c6 -2 18 -2 25 0 6 3 1 5 -13 5 -14 0 -19 -2 -12 -5z"/>
<path d="M4983 2203 c9 -2 25 -2 35 0 9 3 1 5 -18 5 -19 0 -27 -2 -17 -5z"/>
<path d="M5133 2203 c9 -2 23 -2 30 0 6 3 -1 5 -18 5 -16 0 -22 -2 -12 -5z"/>
<path d="M5208 2203 c7 -3 16 -2 19 1 4 3 -2 6 -13 5 -11 0 -14 -3 -6 -6z"/>
<path d="M5053 2163 c9 -2 23 -2 30 0 6 3 -1 5 -18 5 -16 0 -22 -2 -12 -5z"/>
<path d="M5108 2163 c7 -3 16 -2 19 1 4 3 -2 6 -13 5 -11 0 -14 -3 -6 -6z"/>
<path d="M5710 2036 c-6 -8 -18 -12 -26 -9 -8 3 -14 0 -14 -7 0 -6 5 -8 11 -4
8 4 9 0 4 -15 -8 -26 13 -28 58 -4 18 9 57 24 87 33 l54 18 -69 0 c-39 0 -76
-5 -84 -12 -12 -8 -13 -8 -7 2 10 17 1 15 -14 -2z"/>
<path d="M5560 1966 c0 -20 16 -29 41 -21 16 5 18 10 8 21 -15 18 -49 18 -49
0z"/>
<path d="M5450 1932 c0 -19 35 -41 50 -32 8 5 12 10 8 11 -5 1 -12 3 -18 4 -5
1 -15 3 -21 4 -5 0 -7 6 -4 11 3 6 1 10 -4 10 -6 0 -11 -4 -11 -8z"/>
<path d="M5409 1893 c-13 -16 -12 -17 4 -4 9 7 17 15 17 17 0 8 -8 3 -21 -13z"/>
<path d="M5298 1822 c-70 -31 -125 -58 -123 -60 4 -4 181 70 235 99 66 34 15
17 -112 -39z"/>
<path d="M5125 1810 c-13 -6 -15 -9 -5 -9 8 0 22 4 30 9 18 12 2 12 -25 0z"/>
<path d="M5066 1749 c25 -10 66 -11 81 -1 6 4 -14 7 -44 8 -33 0 -48 -3 -37
-7z"/>
<path d="M623 1363 c10 -9 56 -10 51 -1 -3 4 -17 8 -31 8 -15 0 -23 -3 -20 -7z"/>
</g>
</svg>
