<svg xmlns="http://www.w3.org/2000/svg" xmlns:xlink="http://www.w3.org/1999/xlink" width="250" zoomAndPan="magnify" viewBox="0 0 187.5 187.499992" height="250" preserveAspectRatio="xMidYMid meet" version="1.0"><defs><g/><clipPath id="06a40dcdd3"><path d="M 48.808594 48.539062 L 138.804688 48.539062 L 138.804688 105.726562 L 48.808594 105.726562 Z M 48.808594 48.539062 " clip-rule="nonzero"/></clipPath><clipPath id="073a04be9b"><path d="M 73 18.75 L 115 18.75 L 115 57 L 73 57 Z M 73 18.75 " clip-rule="nonzero"/></clipPath></defs><g clip-path="url(#06a40dcdd3)"><path fill="#bc9c22" d="M 134.757812 101.496094 L 114.269531 101.496094 L 114.269531 60.851562 C 115.78125 59.554688 117.191406 58.203125 118.339844 56.757812 C 120.328125 59.265625 123.109375 61.476562 125.832031 63.644531 C 129.945312 66.910156 134.757812 69.898438 134.757812 73.972656 Z M 52.851562 101.496094 L 52.851562 73.972656 C 52.851562 70.351562 57.667969 66.910156 61.777344 63.644531 C 64.503906 61.476562 67.28125 59.265625 69.269531 56.757812 C 70.417969 58.203125 71.828125 59.554688 73.34375 60.851562 L 73.34375 101.496094 Z M 118.339844 48.601562 C 117.929688 50.925781 116.363281 53.03125 114.269531 55.042969 C 113.058594 56.210938 111.671875 57.34375 110.226562 58.472656 C 104.496094 62.953125 97.875 67.355469 97.875 73.246094 L 97.875 101.496094 L 89.734375 101.496094 L 89.734375 73.246094 C 89.734375 67.214844 83.113281 62.835938 77.386719 58.402344 C 75.941406 57.285156 74.554688 56.164062 73.34375 55.007812 C 71.246094 53.015625 69.683594 50.925781 69.269531 48.601562 C 67.679688 57.601562 48.808594 63.300781 48.808594 73.246094 L 48.808594 105.726562 L 77.386719 105.726562 L 77.386719 64.128906 C 81.34375 67.210938 85.691406 70.101562 85.691406 73.972656 L 85.691406 105.726562 L 101.917969 105.726562 L 101.917969 73.972656 C 101.917969 70.53125 106.265625 67.253906 110.226562 64.132812 L 110.226562 101.496094 L 110.238281 101.496094 L 110.238281 105.726562 L 138.804688 105.726562 L 138.804688 73.246094 C 138.804688 63.058594 119.933594 57.601562 118.339844 48.601562 " fill-opacity="1" fill-rule="nonzero"/></g><g clip-path="url(#073a04be9b)"><path fill="#bc9c22" d="M 77.386719 44.144531 C 77.386719 40.523438 82.199219 37.082031 86.3125 33.816406 C 89.035156 31.648438 91.816406 29.4375 93.804688 26.929688 C 95.796875 29.4375 98.574219 31.648438 101.300781 33.816406 C 105.410156 37.082031 110.226562 40.074219 110.226562 44.144531 L 110.226562 56.621094 C 111.671875 55.492188 113.058594 54.355469 114.269531 53.191406 L 114.269531 43.421875 C 114.269531 33.230469 95.398438 27.773438 93.804688 18.773438 C 92.210938 27.773438 73.34375 33.472656 73.34375 43.421875 L 73.34375 53.15625 C 74.554688 54.308594 75.941406 55.429688 77.386719 56.550781 L 77.386719 44.144531 " fill-opacity="1" fill-rule="nonzero"/></g><g fill="#bc9c22" fill-opacity="1"><g transform="translate(37.987524, 131.167288)"><g><path d="M 0.394531 0 L 8.003906 0 L 8.003906 -0.132812 C 6.921875 -0.261719 6.003906 -0.554688 6.003906 -1.5 L 6.003906 -16.925781 C 6.003906 -17.875 6.921875 -18.164062 8.003906 -18.296875 L 8.003906 -18.425781 L 0.394531 -18.425781 L 0.394531 -18.296875 C 1.472656 -18.164062 2.394531 -17.875 2.394531 -16.925781 L 2.394531 -1.5 C 2.394531 -0.554688 1.472656 -0.261719 0.394531 -0.132812 Z M 0.394531 0 "/></g></g></g><g fill="#bc9c22" fill-opacity="1"><g transform="translate(45.857171, 131.167288)"><g><path d="M 6.160156 0.183594 C 9.425781 0.183594 11.53125 -1.578125 11.53125 -3.976562 C 11.53125 -6.1875 9.742188 -7.527344 6.738281 -8.054688 C 4.949219 -8.371094 3.5 -8.976562 3.5 -10.636719 C 3.5 -11.347656 3.789062 -12.53125 5.527344 -12.53125 C 7.449219 -12.53125 9.476562 -11.003906 9.320312 -8.898438 L 9.371094 -8.898438 L 11.160156 -11.371094 C 10.1875 -12.265625 8.554688 -12.925781 6.476562 -12.925781 C 3.394531 -12.925781 1.183594 -11.503906 1.183594 -9.136719 C 1.183594 -7.660156 2 -5.421875 6.027344 -4.894531 C 8.265625 -4.582031 9.449219 -3.84375 9.449219 -2.238281 C 9.449219 -1 8.738281 -0.261719 7.160156 -0.261719 C 4.976562 -0.261719 2.554688 -1.765625 2.632812 -4.054688 L 2.578125 -4.054688 L 0.921875 -1.367188 C 1.972656 -0.5 4.132812 0.183594 6.160156 0.183594 Z M 6.160156 0.183594 "/></g></g></g><g fill="#bc9c22" fill-opacity="1"><g transform="translate(57.780154, 131.167288)"><g><path d="M 5.449219 -2.554688 L 5.449219 -19.429688 L 5.582031 -20.613281 L -0.261719 -17.875 L -0.261719 -17.714844 C 1.421875 -18.21875 2.105469 -18.347656 2.105469 -17.296875 L 2.105469 -1.632812 L 1.867188 0 L 6.949219 0 L 6.949219 -0.105469 C 5.632812 -0.394531 5.449219 -1.132812 5.449219 -2.554688 Z M 5.449219 -2.554688 "/></g></g></g><g fill="#bc9c22" fill-opacity="1"><g transform="translate(64.596991, 131.167288)"><g><path d="M 14.503906 -2.160156 L 14.503906 -11.953125 C 12.820312 -12.609375 11.003906 -12.925781 9.320312 -12.925781 C 3.738281 -12.925781 1.054688 -9.660156 1.054688 -5.816406 C 1.054688 -2.160156 3.554688 0.183594 7.398438 0.183594 C 8.632812 0.183594 9.6875 -0.078125 10.53125 -0.527344 C 10.53125 -0.5 10.503906 -0.5 10.503906 -0.5 L 15.53125 0.316406 L 15.53125 0.238281 C 14.742188 -0.289062 14.503906 -0.738281 14.503906 -2.160156 Z M 4.394531 -7.34375 C 4.394531 -10.398438 5.660156 -12.425781 8.132812 -12.425781 C 9.398438 -12.425781 10.347656 -11.898438 11.160156 -11.003906 L 11.160156 -2.5 C 11.160156 -2.105469 11.136719 -1.816406 11.109375 -1.554688 C 10.582031 -0.972656 9.925781 -0.65625 9.054688 -0.65625 C 6.398438 -0.65625 4.394531 -3.527344 4.394531 -7.34375 Z M 4.394531 -7.34375 "/></g></g></g><g fill="#bc9c22" fill-opacity="1"><g transform="translate(80.652266, 131.167288)"><g><path d="M 19.242188 0 L 23.769531 0 C 22.980469 -0.527344 22.746094 -1.027344 22.746094 -2.449219 L 22.746094 -8.132812 C 22.746094 -12.109375 20.585938 -12.925781 19.007812 -12.925781 C 16.691406 -12.925781 14.714844 -11.160156 13.6875 -10.371094 C 13.03125 -12.425781 11.453125 -12.925781 10.242188 -12.925781 C 8.132812 -12.925781 6.34375 -11.503906 5.210938 -10.609375 L 5.210938 -10.953125 L 5.34375 -12.898438 L 0.261719 -12.503906 L 0.261719 -12.398438 C 0.816406 -12.347656 1.5 -12.164062 1.867188 -11.925781 L 1.867188 -1.816406 L 1.710938 0 L 6.238281 0 C 5.449219 -0.527344 5.210938 -1.027344 5.210938 -2.449219 L 5.210938 -10.003906 C 6.1875 -10.742188 7.316406 -11.714844 8.609375 -11.714844 C 9.792969 -11.714844 10.636719 -11.003906 10.636719 -8.082031 L 10.636719 -1.816406 L 10.476562 0 L 15.003906 0 C 14.214844 -0.527344 13.980469 -1.027344 13.980469 -2.449219 L 13.980469 -8.132812 C 13.980469 -8.792969 13.925781 -9.371094 13.820312 -9.84375 C 14.769531 -10.609375 16.003906 -11.714844 17.375 -11.714844 C 18.558594 -11.714844 19.402344 -11.003906 19.402344 -8.082031 L 19.402344 -1.816406 Z M 19.242188 0 "/></g></g></g><g fill="#bc9c22" fill-opacity="1"><g transform="translate(104.682608, 131.167288)"><g/></g></g><g fill="#bc9c22" fill-opacity="1"><g transform="translate(109.420135, 131.167288)"><g><path d="M 9.765625 -10.003906 C 9.476562 -10.003906 9.214844 -10.003906 8.976562 -9.976562 C 11.609375 -10.953125 14.003906 -12.425781 14.003906 -14.980469 C 14.003906 -16.769531 12.820312 -18.796875 9.054688 -18.796875 C 5.738281 -18.796875 2.265625 -17.164062 0.921875 -15.820312 L 3.660156 -11.503906 L 3.738281 -11.503906 C 3.105469 -14.609375 3.371094 -18.136719 6.871094 -18.136719 C 9.6875 -18.136719 10.609375 -15.953125 10.609375 -14.214844 C 10.609375 -11.636719 8.554688 -9.949219 5.660156 -9.449219 L 6.027344 -9.054688 L 7.109375 -9.371094 C 9.34375 -9.898438 11.792969 -9.792969 11.792969 -6.210938 C 11.792969 -3.027344 10.003906 -0.5 6.265625 -0.5 C 4.476562 -0.5 2.472656 -1.054688 1.449219 -2.183594 L 1.289062 -2.027344 C 2.289062 -0.710938 4.792969 0.367188 7.34375 0.367188 C 11.082031 0.367188 15.292969 -1.949219 15.292969 -5.976562 C 15.292969 -9.082031 12.476562 -10.003906 9.765625 -10.003906 Z M 9.765625 -10.003906 "/></g></g></g><g fill="#bc9c22" fill-opacity="1"><g transform="translate(125.370124, 131.167288)"><g><path d="M 3.289062 0.183594 C 4.289062 0.183594 5.210938 -0.65625 5.210938 -1.789062 C 5.210938 -2.84375 4.289062 -3.632812 3.289062 -3.632812 C 2.238281 -3.632812 1.316406 -2.84375 1.316406 -1.789062 C 1.316406 -0.65625 2.238281 0.183594 3.289062 0.183594 Z M 3.289062 0.183594 "/></g></g></g><g fill="#bc9c22" fill-opacity="1"><g transform="translate(131.371033, 131.167288)"><g><path d="M 9.109375 -18.796875 C 4.421875 -18.796875 1.183594 -15.425781 1.183594 -9.238281 C 1.183594 -3.054688 4.421875 0.367188 9.082031 0.367188 C 13.714844 0.367188 16.953125 -3 16.953125 -9.1875 C 16.953125 -15.398438 13.714844 -18.796875 9.109375 -18.796875 Z M 10.265625 -0.078125 C 6.582031 -0.078125 4.554688 -6.582031 4.554688 -11.953125 C 4.554688 -16.003906 5.710938 -18.347656 7.871094 -18.347656 C 11.558594 -18.347656 13.582031 -11.898438 13.582031 -6.554688 C 13.582031 -2.449219 12.425781 -0.078125 10.265625 -0.078125 Z M 10.265625 -0.078125 "/></g></g></g><g fill="#bc9c22" fill-opacity="1"><g transform="translate(61.870334, 167.917284)"><g><path d="M 8.820312 -18.425781 L 0.394531 -18.425781 L 0.394531 -18.296875 C 1.472656 -18.164062 2.394531 -17.875 2.394531 -16.925781 L 2.394531 -2.027344 C 2.394531 -1.078125 1.472656 -0.527344 0.394531 -0.132812 L 0.394531 0 L 8.292969 0 C 14.585938 0 19.242188 -3.449219 19.242188 -9.6875 C 19.242188 -15.214844 15.636719 -18.425781 8.820312 -18.425781 Z M 9.636719 -0.472656 C 8.238281 -0.472656 7.027344 -0.761719 6.003906 -1.210938 L 6.003906 -18.007812 L 7.765625 -18.007812 C 13.082031 -18.007812 15.425781 -14.03125 15.425781 -8.214844 C 15.425781 -2.265625 13.109375 -0.472656 9.636719 -0.472656 Z M 9.636719 -0.472656 "/></g></g></g><g fill="#bc9c22" fill-opacity="1"><g transform="translate(81.636777, 167.917284)"><g><path d="M 18.71875 -3.316406 L 13.164062 -17.347656 C 12.609375 -18.71875 12.558594 -19.03125 12.558594 -19.191406 L 9.449219 -17.53125 L 8.949219 -17.242188 L 9.003906 -16.480469 L 3.238281 -3.183594 C 2.265625 -0.921875 1.632812 -0.421875 0.527344 -0.105469 L 0.527344 0 L 5.371094 0 L 5.371094 -0.105469 C 3.894531 -0.421875 2.84375 -0.894531 3.816406 -3.160156 L 4.394531 -4.476562 L 14.453125 -4.476562 L 14.980469 -3.160156 C 15.898438 -0.84375 14.847656 -0.261719 13.003906 -0.105469 L 13.003906 0 L 21.324219 0 L 21.324219 -0.105469 C 20.136719 -0.261719 19.664062 -0.894531 18.71875 -3.316406 Z M 4.582031 -4.949219 L 9.609375 -16.558594 L 14.269531 -4.949219 Z M 4.582031 -4.949219 "/></g></g></g><g fill="#bc9c22" fill-opacity="1"><g transform="translate(102.956115, 167.917284)"><g><path d="M 11.347656 -18.796875 C 5.605469 -18.796875 1.183594 -15.136719 1.183594 -9.214844 C 1.183594 -3.289062 5.605469 0.367188 11.347656 0.367188 C 17.058594 0.367188 21.480469 -3.289062 21.480469 -9.214844 C 21.480469 -15.136719 17.058594 -18.796875 11.347656 -18.796875 Z M 12.453125 -0.105469 C 8.082031 -0.105469 5 -5.710938 5 -10.976562 C 5 -15.347656 7.054688 -18.320312 10.214844 -18.320312 C 14.585938 -18.320312 17.664062 -12.714844 17.664062 -7.476562 C 17.664062 -3.105469 15.609375 -0.105469 12.453125 -0.105469 Z M 12.453125 -0.105469 "/></g></g></g></svg>